<?xml version="1.0" encoding="UTF-8"?>
<svg id="_Слой_1" data-name="Слой 1" xmlns="http://www.w3.org/2000/svg" viewBox="0 0 328.48 328.24">
    <defs>
        <style>
            .cls-1 {
            fill: #000;
            stroke-width: 0px;
            }
        </style>
    </defs>
    <path class="cls-1"
          d="m0,17.21c.75-1.83,1.38-3.72,2.28-5.47C8.92-1.1,25.65-3.9,36.14,6.19c7.16,6.89,14.09,14.02,21.12,21.04,34.76,34.76,69.54,69.49,104.23,104.32,2.09,2.1,3.07,2.37,5.33.1,41.4-41.56,82.9-83.03,124.41-124.5,8.36-8.35,19.45-9.46,28.4-2.97,10.17,7.38,11.81,21.86,3.52,31.29-1.13,1.28-2.37,2.47-3.58,3.68-40.8,40.8-81.61,81.61-122.42,122.4-.9.9-1.96,1.66-3.04,2.57,10.69,10.67,21.06,20.99,31.4,31.33,32.04,32.03,64.1,64.06,96.11,96.12,8.84,8.86,9.13,21.69.91,30.42-2.84,3.02-6.5,4.62-10.18,6.24h-10.26c-4.69-.51-8.26-2.99-11.51-6.24-40.93-40.97-81.88-81.9-122.84-122.85-.68-.68-1.38-1.34-2.04-2.04-1.02-1.06-1.99-1.06-3.02,0-.67.69-1.36,1.36-2.04,2.04-40.95,40.94-81.91,81.88-122.84,122.85-3.25,3.25-6.82,5.73-11.51,6.24h-10.26c-9.14-1.91-14.36-7.59-16.03-16.67v-8.34c.42-5.3,3.26-9.21,6.92-12.86,41.01-40.92,81.96-81.9,122.94-122.85,1.13-1.13,2.12-2.42,3.6-3.12-1.27-.59-2.16-1.69-3.13-2.67C89.2,120.62,48.09,79.5,6.95,38.4c-3.61-3.61-6.64-7.48-6.95-12.85,0-2.78,0-5.56,0-8.34Z"/>
</svg>