<?xml version="1.0" encoding="UTF-8"?>
<svg id="_Слой_1" data-name="Слой 1" xmlns="http://www.w3.org/2000/svg" viewBox="0 0 297.08 246.2">
    <defs>
        <style>
            .cls-1 {
            fill: #fff;
            fill-rule: evenodd;
            stroke-width: 0px;
            }
        </style>
    </defs>
    <path id="Path-3" class="cls-1"
          d="m20.42,105.99c79.75-34.74,132.92-57.65,159.53-68.72C255.92,5.67,271.71.18,282,0c2.26-.04,7.32.52,10.6,3.18,2.77,2.25,3.53,5.28,3.89,7.41s.82,6.98.46,10.77c-4.12,43.26-21.93,148.23-30.99,196.67-3.83,20.5-11.39,27.37-18.69,28.05-15.89,1.46-27.95-10.5-43.34-20.58-24.08-15.78-37.68-25.61-61.05-41.01-27.01-17.8-9.5-27.58,5.89-43.57,4.03-4.18,74.02-67.85,75.38-73.62.17-.72.33-3.41-1.27-4.84s-3.96-.94-5.66-.55c-2.41.55-40.88,25.97-115.39,76.27-10.92,7.5-20.81,11.15-29.67,10.96-9.77-.21-28.56-5.52-42.52-10.06C12.5,133.5-1.11,130.56.07,121.1c.62-4.93,7.4-9.96,20.35-15.11Z"/>
</svg>