<?xml version="1.0" encoding="UTF-8"?>
<svg id="_Слой_1" data-name="Слой 1" xmlns="http://www.w3.org/2000/svg" viewBox="0 0 408.71 363.83">
  <defs>
    <style>
      .cls-1 {
        fill: #e6213c;
        stroke-width: 0px;
      }
    </style>
  </defs>
  <path class="cls-1" d="m0,109.38c2.02-5.18,1.86-10.78,3.07-16.14C10.71,59.54,28.2,32.73,58.19,14.97,78.88,2.71,101.5-1.84,125.46.69c31.92,3.37,56.21,19.79,75.69,44.38,3.2,4.05,3.17,4.07,6.49-.2,9.81-12.62,21.41-23.23,35.32-31.19,21.41-12.25,44.34-16.07,68.66-12.27,33.46,5.22,58.97,22.58,77.26,50.77,10.85,16.73,16.74,35.28,18.96,55.04,4.67,41.56-9.65,77.04-34.83,109.1-17.49,22.28-37.94,41.64-59.02,60.4-30.4,27.04-61.62,53.12-92.34,79.79-10.89,9.45-23.13,9.87-33.82.61-37.57-32.56-76.1-64.04-112.42-98.03-18.47-17.28-35.84-35.59-49.88-56.8C12.61,182.8,3.74,161.8.84,138.47c-.09-.71.27-1.66-.84-1.95v-27.14Z"/>
  <path class="cls-1" d="m384.62,121.53c.42,18.28-4.44,37.44-14.27,55.37-11.04,20.12-25.95,37.19-42.06,53.3-25.41,25.43-53.06,48.35-80.28,71.76-13.81,11.88-27.67,23.69-41.41,35.65-1.76,1.54-2.68,1.66-4.52.06-35.3-30.72-71.46-60.46-105.88-92.19-18.6-17.14-36.25-35.18-50.47-56.28-16.1-23.91-24.34-49.97-20.93-78.94,3.67-31.24,16.98-57.04,44.53-73.8,29.65-18.03,69.57-17.09,97.41,7.43,9.48,8.35,17.31,17.92,24.08,28.49,5.01,7.82,12.65,10.17,20.19,6.59,3.52-1.67,5.71-4.67,7.69-7.85,7.72-12.43,17.19-23.33,29.11-31.86,18.25-13.07,38.51-17.32,60.7-13.94,37.66,5.74,64.78,35.03,73.05,71.18,1.72,7.54,2.53,15.16,3.06,25.04Z"/>
</svg>