<?xml version="1.0" encoding="UTF-8"?>
<svg id="_Слой_1" data-name="Слой 1" xmlns="http://www.w3.org/2000/svg" viewBox="0 0 97.3 11.76">
  <defs>
    <style>
      .cls-1 {
        fill: #010101;
        stroke-width: 0px;
      }
    </style>
  </defs>
  <path class="cls-1" d="m0,4.74C.59,3.04,1.46,1.56,3.16.7,4.23.15,5.37,0,6.55,0c23.27,0,46.54,0,69.81,0,4.94,0,9.88-.02,14.82,0,3.55.02,6.15,2.58,6.12,5.97-.03,3.16-2.54,5.65-5.83,5.78-.22,0-.44,0-.66,0-28.11,0-56.23,0-84.34,0-2.63,0-4.66-.97-5.89-3.37C.34,7.96.19,7.48,0,7.02c0-.76,0-1.52,0-2.28Z"/>
</svg>