<?xml version="1.0" encoding="UTF-8"?>
<svg id="_Слой_1" data-name="Слой 1" xmlns="http://www.w3.org/2000/svg" viewBox="0 0 427.83 427.79">
  <defs>
    <style>
      .cls-1 {
        fill: #010101;
        stroke-width: 0px;
      }
    </style>
  </defs>
  <path class="cls-1" d="m219.01,0c2.28,1.15,4.72,2.07,6.82,3.5,6.88,4.67,9.78,11.4,9.78,19.6-.02,54.84.03,109.68-.1,164.52,0,3.8.94,4.71,4.71,4.7,53.31-.13,106.62.13,159.92-.25,13.24-.09,22.87,3.86,27.68,16.75v10.02c-.26.27-.64.49-.75.81-3.77,10.55-11.08,15.77-22.34,15.77-54.83.02-109.67.05-164.5-.08-3.75,0-4.74.86-4.73,4.69.14,54.83.1,109.67.09,164.5,0,10.83-5.71,19.26-14.92,22.21-13.8,4.43-27.78-5.58-28.23-20.32-.17-5.42-.04-10.85-.04-16.28,0-50.1-.05-100.2.09-150.31.01-3.67-.85-4.5-4.5-4.5-54.83.13-109.67.1-164.5.09-10.92,0-19.26-5.54-22.34-14.74-4.71-14.04,5.65-28.28,20.9-28.41,16.98-.15,33.96-.04,50.94-.04,38.41,0,76.82-.05,115.23.09,3.49.01,4.28-.85,4.27-4.3-.12-53.44.14-106.89-.24-160.33C192.15,14.45,196.08,4.81,208.99,0,212.33,0,215.67,0,219.01,0Z"/>
</svg>