<?xml version="1.0" encoding="UTF-8"?>
<svg id="_Слой_1" data-name="Слой 1" xmlns="http://www.w3.org/2000/svg" viewBox="0 0 237.24 148.76">
    <defs>
        <style>
            .cls-1 {
            fill: #fff;
            stroke-width: 0px;
            }
        </style>
    </defs>
    <path class="cls-1"
          d="m177.17,74.3c20.21,10.24,35.88,24.93,47.59,43.87,5.01,8.1,8.69,16.8,11.89,25.76,1.57,4.4-.06,4.83-3.83,4.77-10.49-.18-21-.29-31.48.05-4.31.14-6.11-1.39-7.66-5.28-8.77-22.11-23.72-38.04-46.91-45.28-12.52-3.91-12.54-3.84-12.54,8.81,0,12.08-.22,24.16.12,36.23.13,4.52-1.19,5.5-5.58,5.52-61.55.17-105.33-33.79-121.58-94.56C2.92,38.25,1.11,21.96.04,5.55-.22,1.57.63-.08,5.04.06c10.09.31,20.21.39,30.29-.03,4.7-.2,5.58,1.68,5.72,5.73.56,16.69,3,33.09,8.89,48.79,7.13,19.01,17.69,35.34,36.43,44.98,1.05.54,2.12,1.06,3.22,1.5,6.17,2.5,6.4,2.34,6.4-4.41,0-30.3.09-60.59-.09-90.89-.03-4.33.92-5.89,5.54-5.7,9.29.38,18.61.29,27.91.03,3.89-.11,5.03,1.05,4.97,4.97-.21,16.04.18,32.08-.23,48.11-.15,5.84,1.98,5.99,6.42,4.59,15.87-5.01,27.13-15.83,36.5-28.94,5.31-7.42,9.67-15.43,12.17-24.26.98-3.48,2.73-4.56,6.29-4.47,9.3.25,18.63.45,27.91-.05,5.66-.3,5.56,2.15,4.48,6.18-7.23,27.13-22.93,48.28-45.51,64.58-1.59,1.15-3.25,2.21-5.17,3.51Z"/>
</svg>