<?xml version="1.0" encoding="UTF-8"?>
<svg id="_Слой_1" data-name="Слой 1" xmlns="http://www.w3.org/2000/svg" viewBox="0 0 237.46 164.17">
    <defs>
        <style>
            .cls-1, .cls-2 {
            stroke-width: 0px;
            }

            .cls-2 {
            fill: #fff;
            }
        </style>
    </defs>
    <path class="cls-2"
          d="m128.9.01c7.28.08,12.6.13,17.92.19,3.04.04,6.08.09,9.11.15,4.69.1,9.37.2,14.06.31,3.85.09,7.7.2,11.54.31,3.06.09,6.13.16,9.19.28,2.77.11,5.53.35,8.28.71,3.08.41,6.16.87,9.21,1.48,4.81.95,9.27,2.74,13.17,5.78,3.36,2.62,5.92,5.9,7.88,9.66,2.14,4.12,3.48,8.51,4.43,13.03.93,4.43,1.48,8.92,1.91,13.43.4,4.25.7,8.5,1.02,12.75.37,4.91.6,9.82.73,14.74.13,4.82.16,9.64.05,14.45-.11,4.95-.33,9.89-.68,14.82-.33,4.67-.74,9.34-1.3,13.98-.73,6.07-1.49,12.15-2.81,18.13-.97,4.36-2.27,8.6-4.37,12.56-2.19,4.13-5.13,7.57-9.15,10.03-2.78,1.7-5.79,2.77-8.96,3.44-2.31.48-4.65.67-7,.83-3.29.23-6.57.48-9.86.71-2.09.14-4.18.26-6.27.39-2.87.18-5.74.38-8.62.55-2.59.15-5.18.27-7.76.39-3.97.19-7.95.38-11.92.54-3.01.12-6.02.15-9.03.26-3.77.13-7.54.09-11.31.17-4.51.09-9.02.08-13.51-.09-4.81-.18-9.63-.22-14.44-.33-2.85-.07-5.71-.11-8.56-.16-2.88-.05-5.76-.11-8.64-.16-2.85-.05-5.71-.1-8.56-.16-2.91-.05-5.81-.08-8.72-.17-4.74-.14-9.48-.07-14.22-.16-2.67-.05-5.34-.06-8.01-.15-3.06-.11-6.12-.23-9.18-.44-4.22-.3-8.43-.75-12.61-1.49-2.57-.46-5.14-.92-7.63-1.74-6.89-2.27-12.03-6.62-15.55-12.94-2.29-4.11-3.69-8.53-4.7-13.1-.8-3.63-1.32-7.3-1.74-11-.48-4.19-.84-8.38-1.18-12.58-.31-3.89-.54-7.78-.72-11.67C.03,91.17-.04,84.55.02,77.92c.05-4.71.22-9.42.47-14.13.21-3.92.49-7.83.84-11.74.44-4.9.99-9.78,1.66-14.65.49-3.5.94-7,1.62-10.46.91-4.62,2.6-8.94,5.39-12.77,3.72-5.1,8.73-8.35,14.76-10.08,2.63-.75,5.31-1.15,8.03-1.32,3.58-.22,7.15-.48,10.73-.7,2.46-.15,4.91-.27,7.37-.39,3.76-.19,7.53-.38,11.29-.55,2.3-.1,4.61-.16,6.91-.24,3.64-.12,7.27-.25,10.91-.37,1.39-.04,2.78-.06,4.16-.09,5.97-.15,11.94-.24,17.91-.32C111.69-.03,121.28,0,128.9.01Z"/>
    <path class="cls-1"
          d="m95.35,116.67V47.22s.06-.03.08-.04c.02,0,.05-.02.07-.01.14.07.28.13.42.21,19.98,11.47,39.96,22.94,60.06,34.48-20.24,11.62-40.38,23.18-60.63,34.81Z"/>
</svg>