<?xml version="1.0" encoding="UTF-8"?>
<svg id="_Слой_1" data-name="Слой 1" xmlns="http://www.w3.org/2000/svg" viewBox="0 0 370.89 371.32">
    <defs>
        <style>
            .cls-1 {
            fill: #758096;
            }

            .cls-1, .cls-2, .cls-3, .cls-4, .cls-5, .cls-6, .cls-7, .cls-8, .cls-9, .cls-10, .cls-11, .cls-12, .cls-13,
            .cls-14, .cls-15, .cls-16, .cls-17, .cls-18, .cls-19, .cls-20, .cls-21, .cls-22, .cls-23, .cls-24, .cls-25,
            .cls-26, .cls-27, .cls-28, .cls-29, .cls-30, .cls-31, .cls-32, .cls-33, .cls-34, .cls-35, .cls-36, .cls-37,
            .cls-38, .cls-39, .cls-40, .cls-41, .cls-42, .cls-43, .cls-44, .cls-45, .cls-46, .cls-47, .cls-48, .cls-49,
            .cls-50, .cls-51, .cls-52, .cls-53, .cls-54, .cls-55, .cls-56, .cls-57, .cls-58, .cls-59, .cls-60, .cls-61,
            .cls-62, .cls-63, .cls-64, .cls-65, .cls-66, .cls-67, .cls-68, .cls-69, .cls-70, .cls-71, .cls-72, .cls-73,
            .cls-74, .cls-75, .cls-76, .cls-77, .cls-78, .cls-79, .cls-80, .cls-81, .cls-82, .cls-83, .cls-84, .cls-85,
            .cls-86, .cls-87, .cls-88, .cls-89, .cls-90, .cls-91, .cls-92, .cls-93, .cls-94, .cls-95, .cls-96, .cls-97,
            .cls-98, .cls-99, .cls-100, .cls-101, .cls-102, .cls-103, .cls-104, .cls-105, .cls-106, .cls-107, .cls-108,
            .cls-109, .cls-110, .cls-111, .cls-112, .cls-113, .cls-114, .cls-115, .cls-116 {
            stroke-width: 0px;
            }

            .cls-2 {
            fill: #8e9eb1;
            }

            .cls-3 {
            fill: #e2302e;
            }

            .cls-4 {
            fill: #1f2c49;
            }

            .cls-5 {
            fill: #7c879b;
            }

            .cls-6 {
            fill: #debabf;
            }

            .cls-7 {
            fill: #353e5c;
            }

            .cls-8 {
            fill: #e5213c;
            }

            .cls-9 {
            fill: #1a1e37;
            }

            .cls-10 {
            fill: #dae2e8;
            }

            .cls-11 {
            fill: #1b1d38;
            }

            .cls-12 {
            fill: #e8e9f0;
            }

            .cls-13 {
            fill: #2b4469;
            }

            .cls-14 {
            fill: #62334e;
            }

            .cls-15 {
            fill: #b65459;
            }

            .cls-16 {
            fill: #191d35;
            }

            .cls-17 {
            fill: #e0ece9;
            }

            .cls-18 {
            fill: #891d31;
            }

            .cls-19 {
            fill: #484e60;
            }

            .cls-20 {
            fill: #f8f9fa;
            }

            .cls-21 {
            fill: #080a15;
            }

            .cls-22 {
            fill: #7c899d;
            }

            .cls-23 {
            fill: #300e22;
            }

            .cls-24 {
            fill: #7a8396;
            }

            .cls-25 {
            fill: #2d3754;
            }

            .cls-26 {
            fill: #090a15;
            }

            .cls-27 {
            fill: #c33170;
            }

            .cls-28 {
            fill: #a2b0c1;
            }

            .cls-29 {
            fill: #490f1c;
            }

            .cls-30 {
            fill: #201216;
            }

            .cls-31 {
            fill: #1b1c36;
            }

            .cls-32 {
            fill: #ae2b48;
            }

            .cls-33 {
            fill: #e7334c;
            }

            .cls-34 {
            fill: #1e182b;
            }

            .cls-35 {
            fill: #333;
            }

            .cls-36 {
            fill: #e5203b;
            }

            .cls-37 {
            fill: #576882;
            }

            .cls-38 {
            fill: #bd2848;
            }

            .cls-39 {
            fill: #e3213a;
            }

            .cls-40 {
            fill: #686b83;
            }

            .cls-41 {
            fill: #6a223f;
            }

            .cls-42 {
            fill: #961f2e;
            }

            .cls-43 {
            fill: #351833;
            }

            .cls-44 {
            fill: #2a3850;
            }

            .cls-45 {
            fill: #393f62;
            }

            .cls-46 {
            fill: #0a090f;
            }

            .cls-47 {
            fill: #edeff2;
            }

            .cls-48 {
            fill: #273a6a;
            }

            .cls-49 {
            fill: #737f92;
            }

            .cls-50 {
            fill: #39548b;
            }

            .cls-51 {
            fill: #fcfbf9;
            }

            .cls-52 {
            fill: #070912;
            }

            .cls-53 {
            fill: #37495f;
            }

            .cls-54 {
            fill: #ededef;
            }

            .cls-55 {
            fill: #b52a48;
            }

            .cls-56 {
            fill: #556179;
            }

            .cls-57 {
            fill: #927e94;
            }

            .cls-58 {
            fill: #331b1b;
            }

            .cls-59 {
            fill: #c02847;
            }

            .cls-60 {
            fill: #732743;
            }

            .cls-61 {
            fill: #32415e;
            }

            .cls-62 {
            fill: #5b2839;
            }

            .cls-63 {
            fill: #596878;
            }

            .cls-64 {
            fill: #9a9eaf;
            }

            .cls-65 {
            fill: #9993a3;
            }

            .cls-66 {
            fill: #1d233f;
            }

            .cls-67 {
            fill: #f0f6f5;
            }

            .cls-68 {
            fill: #f6f1f6;
            }

            .cls-69 {
            fill: #1e243e;
            }

            .cls-70 {
            fill: #aa344a;
            }

            .cls-71 {
            fill: #1b223b;
            }

            .cls-72 {
            fill: #140e16;
            }

            .cls-73 {
            fill: #0a0c14;
            }

            .cls-74 {
            fill: #f5f4f5;
            }

            .cls-75 {
            fill: #546d92;
            }

            .cls-76 {
            fill: #0d0e1c;
            }

            .cls-77 {
            fill: #e5213b;
            }

            .cls-78 {
            fill: #9aa3b2;
            }

            .cls-79 {
            fill: #242c4f;
            }

            .cls-80 {
            fill: #0a0b15;
            }

            .cls-81 {
            fill: #bcc2cc;
            }

            .cls-82 {
            fill: #b36491;
            }

            .cls-83 {
            fill: #871e2a;
            }

            .cls-84 {
            fill: #354361;
            }

            .cls-85 {
            fill: #281021;
            }

            .cls-86 {
            fill: #a92233;
            }

            .cls-87 {
            fill: #461918;
            }

            .cls-88 {
            fill: #1d2538;
            }

            .cls-89 {
            fill: #5b6b8b;
            }

            .cls-90 {
            fill: #e6233c;
            }

            .cls-91 {
            fill: #6a2342;
            }

            .cls-92 {
            fill: #3b4963;
            }

            .cls-93 {
            fill: #445778;
            }

            .cls-94 {
            fill: #283653;
            }

            .cls-95 {
            fill: #293752;
            }

            .cls-96 {
            fill: #0f0f10;
            }

            .cls-97 {
            fill: #4d586f;
            }

            .cls-98 {
            fill: #1d1d1b;
            }

            .cls-99 {
            fill: #1c233c;
            }

            .cls-100 {
            fill: #a0cbd7;
            }

            .cls-101 {
            fill: #e6223c;
            }

            .cls-102 {
            fill: #c4c9d6;
            }

            .cls-103 {
            fill: #eaedef;
            }

            .cls-104 {
            fill: #a1323c;
            }

            .cls-105 {
            fill: #020101;
            }

            .cls-106 {
            fill: #e4e7ee;
            }

            .cls-107 {
            fill: #758195;
            }

            .cls-108 {
            fill: #e5ecf0;
            }

            .cls-109 {
            fill: #f7f9f7;
            }

            .cls-110 {
            fill: #b12a49;
            }

            .cls-111 {
            fill: #549fc8;
            }

            .cls-112 {
            fill: #767c94;
            }

            .cls-113 {
            fill: #9ea6bb;
            }

            .cls-114 {
            fill: #0b0c19;
            }

            .cls-115 {
            fill: #171718;
            }

            .cls-116 {
            fill: #f6f7f8;
            }
        </style>
    </defs>
    <path class="cls-115"
          d="m354.31,261.4c-9.08,20.67-21.62,39.04-37.46,55.08-16.26,16.46-34.98,29.48-56.11,39.01-6.17,2.78-12.66,4.67-18.89,7.25-3.91,1.62-8.08,2-12.09,3.08-4.06,1.08-8.08,2.22-12.21,3.03-8.45,1.65-17,2.2-25.57,2.38-8.65.18-17.31.17-25.92-.78-8.08-.88-16.02-2.51-23.97-4.23-9.81-2.13-19.15-5.56-28.35-9.37-18.83-7.8-35.72-18.72-50.8-32.44-12.01-10.92-22.45-23.18-31.42-36.7-1.68-2.54-3.56-4.95-4.65-7.84.53-1.84.08-3.79.68-5.64.83-2.57,1.83-3.03,4.12-1.58.7.45,1.12.44,1.58-.2.58-.23,1,.02,1.23.53.93,2.02,2.48,3.67,3.4,5.69.22.57.51,1.11.95,1.55,2.28,2.56,4.12,5.46,6.14,8.21,6.08,8.27,12.65,16.13,20.18,23.04,11.88,10.9,24.63,20.71,39.05,28.14,11.09,5.71,22.48,10.67,34.74,13.34,1.81.39,3.61.86,5.46,1.36-1.41-1.57-2.79-3.15-4.4-4.44-8.63-6.95-16.76-14.49-25.39-21.45-6.38-5.15-12.51-10.66-18.7-16.07-4.99-4.36-10.15-8.55-15.27-12.78-5.24-4.33-10.12-9.06-15.3-13.46-.49-.42-1.04-.88-.88-1.6.19-.84.99-.97,1.67-1.14.98-.25,1.99-.18,2.99-.18,13.31,0,26.62,0,39.93,0,1.29,0,2.58-.02,3.83-.41,5.35-.3,10.7-.1,16.05-.13,6.06-.04,12.13-.09,18.19.03,3.07.06,5.94-.38,8.69-1.77,1.26-.64,2.53-1.34,3.96-1.59,2.78-.33,5.51.32,8.26.5,1.61.52,3.26.25,4.89.25,6.92,0,13.85.15,20.77-.05,4.62-.13,9.29-.12,13.83-1.17,3.95-.92,7.84-2.12,11.78-3.08.69-.17,1.39-.32,2.09-.48.25-.05.5-.07.76-.05,1.85.25,3.7.34,5.54-.17,10.9-.81,21.84-.85,32.76-1.43,13.58-.08,27.16-.05,40.74,0,1.54,0,2.81-1.07,4.35-.73,1.03,2.27.67,4.75,1.04,7.12.13.86-.73,1.12-1.47,1.25-.99.17-2,.12-3,.12-20.59,0-41.17,0-61.76,0-1.5,0-3-.04-4.47.37-5.75-.39-11.5.28-17.27.02.88.49,1.85.39,2.81.47,4.95.38,9.91.67,14.88.57,1.2.24,2.42.21,3.64.21,22.8,0,45.6,0,68.4-.01,1.11,0,2.27.25,3.31-.39.13-.72-.45-.89-.83-1.13-1.21-.77-1.7-1.88-1.7-3.26-.05-11.22-.04-22.44,0-33.66,0-.64.07-1.29.41-1.86.64-.65.86-.01,1.04.4.35.81.27,1.68.27,2.54,0,5.08,0,10.15,0,15.23q0,3.66,3.36,4.89c.49.32.44.67,0,.98-.51.36-1.21.24-2.24.82,3.13.07,5.73.44,8.28-.48,4.97-1.56,8.71-4.63,11.36-9.08.47-.79.93-1.6,1.48-2.34.75-1.5,1.06-3.08,1.05-4.75,0-.91-.13-1.88.66-2.59,2.34-.55,4.18.4,5.56,2.15,1.25,1.58,2.57,2.77,4.75,2.31.67,2.01-.05,3.8-1.03,5.46-.83,1.39-1.52,2.65-.08,4.01,1.04.98,3.11.99,4.59-.04,1.06-.73,2.03-1.58,3.32-1.9,1.08-.27,2-.22,2.41,1.04Z"/>
    <path class="cls-105"
          d="m33.31,272.51c-.17.51.51,1.16-.16,1.55-.67.39-1-.28-1.4-.64-2.22-1.97-2.91-1.71-3.73,1.21-.33,1.19-.31,2.36-.36,3.56-.02.66.25,1.49-.8,1.68-1.39-1.64-2.5-3.47-3.53-5.34-8.34-15.17-14.83-31.11-18.51-48.01-3.82-17.55-5.84-35.33-4.32-53.37,1.01-11.95,2.42-23.78,5.62-35.41,5.99-21.8,15.46-41.9,28.69-60.18,18.07-24.98,40.84-44.45,68.49-58.25,12.54-6.26,25.53-11.26,39.16-14.31C159.45,1.19,176.65-.71,194.13.25c14.23.78,28.28,2.53,41.98,6.46,29.15,8.38,54.85,22.95,76.79,43.89,18.98,18.11,33.52,39.33,43.78,63.55,6.67,15.73,10.57,32.16,12.96,48.93,1.62,11.39,1.37,22.95.86,34.47-.41,9.09-1.7,18.04-3.75,26.86-1.88,8.08-3.76,16.17-6.92,23.91-1.79,4.38-3.02,9-5.51,13.09-1.86-1.64-3.4-.37-4.63.79-1.43,1.35-3,1.55-4.72,1.34-2.01-.25-3.24-3.03-1.97-4.56,1.49-1.82,1.78-3.95,2-6.13-.19-.45-.01-.84.19-1.22,3.72-6.6,5.01-14.06,7.56-21.08.76-2.11,0-4.54,1.01-6.72.53-1.16.93-2.39,1.52-3.53,1.34-2.57,1.76-5.36,2.02-8.2,1.25-16.06.81-32.16.89-48.24.02-2.98-.56-5.84-1.43-8.64-1.58-5.05-2.53-10.25-3.82-15.37-1.32-5.27-2.92-10.47-4.81-15.56-2.49-6.7-5.21-13.34-8.78-19.55-5.13-8.92-10.38-17.76-16.7-25.94-4.69-6.07-9.77-11.79-15.13-17.23-4.8-4.87-9.89-9.51-15.34-13.7-4.59-3.54-9.29-6.91-14.16-10.05-8.85-5.71-18.01-10.84-27.87-14.61-3.94-1.51-7.7-3.54-11.82-4.5-6.95-1.61-13.7-3.99-20.82-5.01-3.42-.49-6.78-1.56-10.27-1.91-4.47-.45-8.9-1.29-13.39-1.38-4.65-.09-9.3.04-13.95-.04-6.38-.11-12.67.71-18.99,1.53-6.47.84-12.65,2.88-19.01,4.07-9.8,1.84-18.86,5.75-27.97,9.47-5.13,2.09-10.1,4.64-14.86,7.64-4.47,2.82-9.11,5.38-13.4,8.47-6.79,4.88-13.91,9.41-19.76,15.39-5.09,5.2-10.75,9.89-15.2,15.7-6.51,8.51-13.07,16.94-18.49,26.26-3.07,5.28-5.82,10.73-8.16,16.25-2.88,6.79-6.28,13.5-7.52,20.94-.49,2.94-1.15,5.89-2.66,8.53-.62,1.13-.73,2.35-.64,3.61.32,3.54-1.37,6.69-1.91,10.06-.79,4.94-1.49,9.87-1.52,14.89-.03,4-.06,7.99-.26,11.99-.17,3.31.05,6.72.38,10.04.34,3.49.36,6.99.61,10.47.27,3.81,1.11,7.45,1.9,11.14,1.21,5.65,2.32,11.33,4.15,16.83,1.24,3.73,2.47,7.46,3.92,11.11.82,2.06,1.64,4.11,2.16,6.28.77,3.18,2.74,5.79,4.27,8.61,1.94,3.57,3.71,7.25,6,10.63.43.63.83,1.37.37,2.2Z"/>
    <path class="cls-90"
          d="m13.41,144.6c2.81-8.22,4.5-16.78,8.05-24.81,2.39-5.4,4.7-10.85,7.43-16.07,6.51-12.45,14.72-23.79,24.01-34.31,5.94-6.73,12.2-13.26,19.33-18.69,7.59-5.77,15.25-11.48,23.48-16.43,9.66-5.81,19.87-10.27,30.37-14.24,5.5-2.08,11.14-3.54,16.83-4.93,6.88-1.68,13.74-3.46,20.77-4.31,8.31-1.01,16.67-1,25.04-1.09,7.76-.08,15.48.72,22.98,2.1,5.47,1.01,11.13,1.66,16.48,3.71,3.39,1.3,7.18,1.57,10.67,2.79,8.85,3.09,17.49,6.62,25.81,11.03,8.47,4.48,16.55,9.56,24.21,15.25,11.32,8.4,21.36,18.21,30.39,29.05,5.73,6.88,10.54,14.35,15.37,21.87,5.96,9.28,10.53,19.19,14.35,29.44,1.96,5.27,3.59,10.69,4.76,16.25,1.22,5.8,2.9,11.51,4.4,17.25.44,1.67.59,3.36.59,5.08-.04,11.73-.02,23.46-.11,35.19-.03,4.43-.89,8.81-.8,13.25-.63,1.28-1.44.79-2.27.24-2.56-1.72-4.71-3.93-6.89-6.07-3.36-3.3-6.98-6.31-10.72-9.15-1.85-1.41-3.06-3.14-3.65-5.35-.39-3.2.1-6.43-.24-9.61-.38-3.54-1.57-6.82-3.82-9.73-2.92-3.76-6.82-5.97-11.12-7.65-1.13-.88-2.44-.47-3.69-.49-2.6,0-5.21.06-7.81-.02-2.66.07-5.32.04-7.98.04-5.4-.13-10.81-.36-16.03,1.47-1.21.15-2.43.29-3.53.88-3.73,1.04-6.94,2.95-9.59,5.79-.64.68-1.16,1.45-1.43,2.37-1.2,3.16-2.84,6.18-3.1,9.64-.03.36-.26.65-.57.86-1.01.45-1.77-.05-2.52-.64-1.23-.98-2.35-2.06-3.42-3.2-1.76-1.88-3.67-3.55-5.89-4.86-1.56-.93-2.72-2.24-3.54-3.86-.38-7.06-.06-14.12-.17-21.18-.04-2.5.12-4.99.03-7.49-.03-.76.18-1.62-.79-2.01-.99-.24-1.99-.14-2.99-.14-13.41,0-26.81,0-40.22-.01-1.06,0-2.14.13-3.18-.26-1.4-1.76-.9-4.07-1.71-5.99-.04-.99.15-2.02-.54-2.88-.33-.74-.31-1.53-.31-2.31.01-4.13-1.97-7.32-4.75-10.15-.91-.8-2.24-1.04-2.86-2.22-.76-1.31-2.11-1.62-3.41-2.01-4.17-1.25-4.51-1.69-4.51-6q0-4.59,4.69-4.6c2.36,0,4.72.02,7.08-.01.78-.01,1.61.1,2.06-.79.89-1.16.84-2.51.74-3.86-.22-1.14-1.18-1.1-2-1.22-1.84-.28-3.71-.14-5.56-.19-5.92-.14-11.85.33-17.76-.38-1.55-.19-3.14-.12-4.65.49-.97.39-1.82.86-1.83,2.09.24,2.74.35,2.86,2.97,3.06.64.05,1.27.1,1.88.32,2.21.82,4.52.36,6.78.47,2.43.13,2.85.48,2.97,2.88.13,2.52.95,5.09-.43,7.53-.5.5-1.18.44-1.81.55-8,1.35-12.14,5.36-13.47,13.39-.56,3.41-1.54,6.69-2.4,10.01-.61,2.34-1.35,2.94-3.81,2.95-12.45.06-24.9.04-37.35.02-.94,0-1.85-.16-2.73-.5-1.14-.57-2.34-.34-3.52-.25-.9.29-.88,1.03-.83,1.75.52,8.39.07,16.78.23,25.17.03,1.42-.05,2.86.95,4.05.91,3.55-.03,7.08-.21,10.61-.12,2.27-.33,4.54-.32,6.81,0,1.37-.14,2.7-.99,3.86-.15.21-.33.38-.55.52-1.35.56-2.78.27-4.18.32-1.13.05-2.26-.01-3.27.64-1.77.66-3.5,1.53-5.5,1.21-1.75-.95-1.67-2.69-1.76-4.3-.17-3.05-.25-6.12-.27-9.16-.02-5.29-2.36-9.24-5.92-12.75-3.62-4.24-8.23-6.41-13.79-6.51-3.55-.07-7.11,0-10.66,0-4.99-.06-9.97.07-14.95.04-1.38,0-2.67.32-3.96.73-1.62.53-3.27.95-4.98,1.12-3.28.82-5.83,2.7-7.82,5.4-.38.51-.81.97-1.35,1.33-2.16,2.64-3.21,5.66-3.38,9.07-.89,17.94-.18,35.89-.42,53.84-.06,4.72.46,9.42.54,14.14.06,3.23,1.29,6.29,3.32,8.91.74.96,1.57,1.86,2.17,2.92.22,3.8,2.08,7.5.54,11.44-.58,1.49.76,2.98.66,4.55,0,.28,0,.56-.03.84-.07.62-.09,1.36-.82,1.54-.74.18-1.09-.45-1.4-1.01-1.43-2.16-2.86-4.33-4.29-6.49-.95-3.08-3.49-5.26-4.66-8.24-1.56-3.98-4.74-7.16-5.93-11.27-1.63-5.63-4.16-10.92-5.85-16.53-1.3-4.31-2.74-8.58-3.68-12.99-.78-3.65-1.57-7.31-2.31-10.97-1.74-8.58-1.75-17.32-1.87-26-.1-7.48.01-15,.86-22.49.49-4.27,1.42-8.39,2.5-12.51.29-1.09.23-2.26.34-3.4.65-1.1.22-2.41.7-3.54Z"/>
    <path class="cls-96"
          d="m307.63,163.63c2.71-.02,5.42-.04,8.14-.06,1.13.41,2.43.08,3.49.78,5.87,1.43,10.35,4.93,13.06,10.14,1.38,2.65,2.93,5.57,2.51,8.99-.34,2.74-.09,5.56-.1,8.34.19.89.78,1.99-.98,1.84-1.84-1.7-1.12-4.03-1.38-6.08-.27-2.16.01-4.38-.2-6.57-.66,3.7.09,7.35.49,11,.07.65.19,1.31,0,1.91-1.12,3.42-.71,6.94-.72,10.42-.04,14.64-.03,29.28,0,43.93,0,2.52-.12,4.99-.93,7.39-.65,3.21-2.78,5.42-5.26,7.25-1.52,1.12-3.21,2.1-5.02,2.78-1.31.31-2.63.57-3.96.8-.76.14-1.55.31-2.2-.33-1.47.32-2.75-1.03-4.34-.3,0-7.14,0-14.1-.01-21.07,0-.76.24-1.57-.32-2.26-1.97-.64-3.9-1.34-5.46-2.84-1.02-.98-2.37-1.23-3.77-1.27-5.83-.18-11.55.58-17.19,2.02-10.82,2.76-21.78,4.75-32.92,5.74-8.11.72-16.24,1.12-24.36,1.7-1.1.08-2.27.11-2.34,1.6-.06,1.36.78,1.99,2.02,2.39,2.35.75,4.69-.11,7.03.04,1.84.53,3.69,1.05,5.45,1.81.44.19,1.01.44.96,1-.06.75-.79.76-1.31.77-2.63.06-5.22.4-7.81.8-1.41.22-2.85.26-4.25.58-.72.16-1.49.32-1.5,1.24-.02,1.05.81,1.25,1.63,1.32,2.72.23,5.41-.3,8.13-.36,10.65-.23,21.26-.98,31.86-2.04,7.11-.71,14.27-.7,21.39-1.38,4.63-.44,9.26-.79,13.87-1.34,1.15-.14,2.88-.92,3.13,1.03.24,1.84-1.52,2.1-2.82,2.23-4.7.45-9.4.86-14.08,1.48-12.62,1.69-25.32,2.46-37.98,3.69-6.17.6-12.4.85-18.61,1.01-1.65.04-3.28.25-4.9.52-.91.15-1.59.62-1.96,1.48-.58,1.36-.11,2.18,1.46,2.27,1.71.1,3.44.17,5.14-.06,10.13-1.39,20.3-2.58,30.37-4.34,6.29-1.1,12.66-1.21,18.98-1.88,7.04-.75,13.97-2.33,21.05-2.82.43-.03.85-.13,1.28-.12,1.01,0,1.9.3,2.12,1.4.24,1.21-.49,1.85-1.56,2.19-2,.64-4.1.62-6.16.8-11.56.99-22.89,3.53-34.38,4.98-11.21,1.42-22.39,3.03-33.58,4.57-2.56.35-5.05.99-7.56,1.57-.76.14-1.55.14-2.3.33-1.64.42-2.91-.09-3.82-1.52-3.09-3.74-6.35-7.33-9.73-10.81-.95-.98-1.9-1.96-2.03-3.44,0-.72-.08-1.49.29-2.1,1.87-3.11,1.65-6.55,1.63-9.95-.03-3.34.06-6.68-.05-10.03.04-6.56.36-13.11.49-19.66.02-.25.07-.49.12-.73.52-1.49.24-3.04.3-4.57.48-5.83.7-11.72,1.5-17.5,1.42-10.36,6.66-18.73,14.93-25.16.32-.25.89-.38.75-.9-.16-.59-.76-.58-1.25-.58-.96,0-1.76.56-2.62.89-1.01.35-1.78,1.31-2.98,1.17-.79-.33-.73-1.16-1.05-1.77-1-1.9-3.39-2.81-5.06-1.65-1.19.82-2.08.72-3.07-.04-1.49-1.16-2.9-1.11-4.5-.11-1.45.9-3.05,1.54-4.86,1.31-1.83-.23-2.33-1.03-1.31-2.56,1.58-2.37,3.27-4.67,5.14-6.82,1.04-.88,2.35-1.3,3.49-2.04,1.32-.85,1.99-1.96,1.6-3.59-.24-1.03-.42-2.1.15-3.11.89-.73,1.73-.34,2.57.11,2.32,1.25,4.16,2.92,5.16,5.47.73,1.86,1.8,3.55,3.31,4.92.56.55,1,1.16,1.25,1.92,1.01,3.09,3.2,4.46,6.39,4.38,2.93.74,5.77,1.7,8.21,3.56,1.06.81,2,.76,3.17.22,3.23-1.52,6.52-2.93,9.78-4.4.7-.25,1.36-.87,2.16-.26.72,1.67.05,2.77-1.49,3.4-.67.28-1.28.62-1.83,1.06-1.76,1.07-3.72,1.75-5.56,2.66-.43.21-1.01.37-.99.98.02.59.58.73,1.01.97,1.01.54,2.46.75,2,2.48-1.17,1.48-2.83,1.05-4.35,1.08-2.97.07-5.96-.41-8.9.27,0,.25-.77.29-.31.52,1.01.52,1.79,1.29,2.65,1.98,1.94,1.8,4.36,1.23,6.56,1.1,2.82-.16,4.8,1.14,6.56,2.99.93.98,1.68,2.14,2.28,3.36.54,1.09,1.13,2.1,1.99,3.01,1.05,1.1.79,2.06-.75,2.52-4.33.51-8.4-1.12-12.64-1.49-4.3-.37-8.56-1.33-12.91-.74-1.56.52-2.75-1.04-4.29-.77-.76.13-1.55-.02-2.38.08,2.3,1.23,4.96.42,7.26,1.44,7.98.76,15.9,1.93,23.84,2.9,5.67.69,11.43.46,17.08,1.45,1.68.71,3.58-.14,5.24.72,1.42,2.19,1.32,3.7-.32,5.25-.98.34-1.98.28-2.98.15-3.87-1-7.76-1.88-11.81-1.64-2.31.14-2.79.55-2.82,2.81-.02,2.43-.09,4.86.06,7.29.02.43.23.94.01,1.27-1.39,2.1.36,2.25,1.63,2.73,2.27.86,4.61,1.53,6.91,2.29,1.79.59,3.64.73,5.5.34.82-.06,1.48.31,2.11.77.48.41,1.01.76,1.52,1.14,1.42,2.07,1.3,2.82-.61,3.94-1.76-.06-2.36.78-2.16,2.52.19,1.62.04,3.27.07,4.91.02,1.03.07,2.16,1.46,2.15,1.38,0,1.13-1.18,1.22-2.07.2-2.1-.47-4.27.52-6.3,1.52-.76,2.96-.09,4.35.35,2.07.66,3.98.6,5.64-.87,2.73-2.42,6.29-2.07,9.48-2.87,1.28-.32,2.33-.46,2.63-1.94.1-.48.41-.92.73-1.3,3.06-3.52,3.7-7.85,4.16-12.26.26-2.5,1.33-4.8,2.01-7.2.26-.92,1.02-1.41,1.96-1.39,4.61.1,5.28-2.32,6.24-6.89,1.24-5.88.69-11.94,1.68-17.87.36-2.17.27-4.4-.72-6.51-.34-.72-1.03-1.71.13-2.46Z"/>
    <path class="cls-51"
          d="m203.7,259.35c3.87,4.42,7.74,8.83,11.61,13.25.17,1.53-.86,2.1-2.05,2.2-9.92.84-19.69,3.2-29.7,3.15-.93,0-1.85.02-2.77-.16-2.71-.65-5.51-.27-8.26-.64-1.88-.26-3.8-.47-5.73-.54-1.89-.07-3.52.35-4.79,1.83-.57.66-1.33,1.06-2.13,1.38-2.07.92-4.14,1.85-6.22,2.75-1.59.69-3.24.77-4.98.77-12.14-.05-24.28.02-36.41.05-.77.26-1.56.13-2.34.13-12.44,0-24.87-.01-37.31.02-3.12,0-6.25-.25-9.35.65-1.62.47-3.41.27-5.12.22-1.35-.04-2.92.08-3.39-1.59-.46-1.67,1.04-2.18,2.15-2.74,1.41-.71,1.53-1.86,1.53-3.22-.02-10.72-.02-21.44,0-32.16,0-1-.1-2,.21-2.98.52-1.03,1.42-1.12,2.38-.89,1.08.25,1.47,1.04,1.43,2.09-.01.36-.18.7-.18,1.05.1,8.41-.79,16.79-.47,25.2.01.36.13.7.19,1.05-.26,2.54-.25,5.1-.22,7.65.01.82-.2,1.77.88,2.17,1.72.27,3.44.03,5.15.03,25.33.02,50.66,0,75.99.03,2.01,0,4-.2,5.98-.51.91-.14,1.82-.31,2.5-1.07-.47-.93-1.36-.78-2.07-.95-5.67-1.34-11.45-1.64-17.25-1.74-5.64-.1-11.29-.2-16.89-.99-2.87-1-5.94-1.01-8.85-1.8-4.46-1.27-8.61-3.44-13.15-4.48-.41-.1-.8-.32-1.15-.56-.53-.37-1.14-.77-.96-1.52.19-.81.92-.75,1.57-.76,10.52,1.71,21.19,2.11,31.71,3.73,7.77,1.2,15.62,1.88,23.31,3.6,1.48.33,2.84.26,3.86-1.1,2.93-3.88,6.19-7.5,9-11.48,1.07-1.51,1.53-3.02,1.15-4.82-2.42-11.69-2.22-23.6-2.83-35.44-.26-4.99-.74-9.97-.86-14.98.11-2.17-.06-4.3-.78-6.36-.71-2.23-.58-4.58-.93-6.86-.02-1.82.26-3.68-.58-5.41-1.77-5.11-4.59-9.49-8.9-12.84-2.65-2.06-7.69-2.39-10.58-.72-2,1.16-2.04,2.54-.11,3.9.5.35,1.32.52,1.1,1.36-.19.73-.95.8-1.56.94-1.46.35-2.93.66-4.39,1-2.25.53-4.37,1.32-6.24,2.71-.62.46-1.25.97-2.11.95-1.01-.4-1.08-1.32-1.24-2.19.35-1.83,1.11-3.48,2.43-4.81,1.33-1.35,2.62-2.74,3.9-4.14,1.73-.75,1.14-1.51-.05-2.12-1.97-1.01-4.02-1.87-5.9-3.05-.82-.51-1.78-1.12-.22-1.95,3.45-.42,6.91-.13,10.36-.18.78-.01,1.55.04,2.3-.23,2.49-.31,4.98-.09,7.47-.16.78-.02,1.57.09,2.31-.28,1.15-.55,1.64-1.52,1.69-2.74.08-2.14.54-4.21.92-6.31.04-.23.1-.45.18-.67,1.54-2.54,3.03-5.14,6.07-6.95-8.87-.61-17.25-.19-25.63-.32-1.13-.02-2.28.12-3.4-.23-1.75-1.64-3.74-2.98-5.64-4.43-.44-.33-.91-.83-.65-1.43.19-.44.71-.34,1.11-.11,1.53.42,3.1.46,4.67.47,11.85,0,23.71-.04,35.56.04,2.02.01,2.93-.65,3.37-2.63.82-3.68,1.94-7.29,2.55-11.02,1.38-8.39,7.8-12.64,15.24-12.87,1.14-.65,2.34-.84,3.64-.55,2.89.64,5.91.91,8.22,3.09.69.82,1.98.78,2.55,1.78-.25,1.11-1.01,1.67-2.06,1.9-2.31-.67-4.36-2.28-6.88-2.15-4.55.24-9.27-.69-13.33,2.58-2.32,1.87-3.65,4.05-4.22,6.93-1.01,5.12-1.87,10.26-2.96,15.37-.23,1.05-.41,2.13-.86,3.09-1.5,3.23-.68,6.12,1.15,8.89.56.79,1.29,1.42,1.93,2.14.43.52.75,1.1,1.01,1.71,1.62,5.15,5.24,7.98,10.41,9.09,5.4,1.15,10.92,1.32,16.35,2.12,3.16.47,6.42.52,9.38,1.94.55.51.78,1.14.77,1.88-.2,1.57-1.49,2.19-2.64,2.87-9.84,5.9-19.04,12.61-26.48,21.42-4.45,5.27-7.38,11.34-7.76,18.4-.03.64-.08,1.28-.25,1.91-.15,10.47-.19,20.93.03,31.38.3,1.96.32,4.02,2.07,5.43,2.54,3.95,6.27,5.82,10.86,6.16,1.01.05,2.02.01,3.03.01,4.63.32,8.84-1.05,12.82-3.28,1.12-.17,2.14-.61,3.19-1.01.94-.36,1.93-.59,2.49.65Z"/>
    <path class="cls-35"
          d="m58.97,241.67c0,11.08-.02,22.16-.02,33.24,0,.93-.03,1.86.06,2.78.16,1.66-.36,2.76-2.13,3.12-.96.19-2.09.43-1.83,1.86.26,1.4,1.34,1.2,2.36,1.15,18.28-.99,36.58-.44,54.87-.43-.75.63-1.65.34-2.48.34-13.02.02-26.04.01-39.06.02-.93,0-1.86.01-2.79.02-1.12.01-2.62-.2-3.05.89-.36.9,1.17,1.21,1.82,1.82,6.97,6.53,14.13,12.85,21.54,18.85,7.01,5.68,13.78,11.64,20.62,17.51,6.05,5.19,12.44,9.96,18.3,15.4,5.68,5.27,11.9,9.95,17.59,15.23.45.41,1.22.75.7,1.53-.44.66-1.01.17-1.52-.02-3.75-1.4-7.76-1.81-11.54-3.06-6.55-2.16-13.1-4.33-19.33-7.38-6.97-3.42-13.89-6.88-20.46-11.04-8.49-5.39-16.24-11.68-23.87-18.22-9.31-7.98-17.13-17.2-24.47-26.93-1.98-2.62-3.8-5.37-5.84-7.94,1.4-.53,1.69-1.43.9-2.69-.18-1.93-1.68-3.82-.64-5.75.76-1.41.72-2.8.36-4.09-.54-1.96-.59-3.91-.67-5.89,2.42.22,4.32,1.35,5.73,3.32,2.94,3.19,6.13,6.13,9.36,9.01,1.19,1.06,2.2,2.43,4.14,3.01-.02-2.56.07-4.95.07-7.34,0-7.55-.46-15.1.3-22.64.12-1.21-.04-2.42-.18-3.62-.11-.92-.18-1.92,1.18-2.04Z"/>
    <path class="cls-20"
          d="m232.91,252.38c-2.26.19-4.52.66-6.81.23-.71-.13-1.4-.24-1.98-.72-1.08-.89-1.27-2.04-.95-3.29.31-1.22,1.33-1.28,2.38-1.35,8.05-.53,16.11-1.07,24.16-1.65,11.48-.82,22.74-2.98,33.88-5.82,5.77-1.47,11.64-2.11,17.6-2.03.89.01,1.74.15,2.47.6,1.89,1.16,3.25,3.21,5.77,3.29.16,0,.31.58.46.89-.04,12.02-.06,24.03-.12,36.05,0,1.31.33,2.21,1.74,2.5,1.01.2,1.82.8,1.64,1.89-.18,1.05-1.26.76-1.97.76-24.39.04-48.78.06-73.17.07-.76,0-1.6.23-2.21-.49-.54-.48-.9-1-.4-1.72.41-1.18,1.41-.75,2.19-.76,15.73-.02,31.45-.01,47.18-.01,7.14,0,14.28,0,21.78,0-1.15-2.64-1.15-5.18-1.11-7.73-.57-.99-1.45-1.22-2.54-1.2-11.14.23-22.29.53-33.42.99-3.04.13-6.16.24-9.08,1.36-7.8.8-15.65.55-23.47.97-3.2.18-6.4.29-9.61.43-1.71.03-3.42.38-5.13,0l-.2-.04-.2.05c-.82.27-1.6.27-1.87-.72-.23-.85.63-.74,1.07-.99,4.07-1.72,8.45-2.07,12.75-2.5,5.98-.61,11.84-1.9,17.8-2.54,12.56-1.36,25.01-3.46,37.46-5.55,4.43-.74,8.95-.97,13.43-1.38,1.14-.1,2.04-.32,1.8-1.72-.23-1.35-1.27-.81-2.05-.76-7.71.48-15.24,2.28-22.92,3.01-5.47.52-10.98.68-16.43,1.51-9.31,1.42-18.62,2.84-27.94,4.16-2.97.42-5.97.57-8.97.74-1.23.07-2.71.34-2.81-1.67-.11-2.06.88-3.51,2.69-3.65,3.56-.29,7.12-.68,10.69-.76,15.17-.36,30.2-2.43,45.29-3.68,6.96-.58,13.91-1.51,20.86-2.33.92-.11,1.82-.19,1.6-1.43-.22-1.23-1.11-.75-1.86-.62-6.27,1.11-12.63,1.48-18.97,1.86-11.49.7-22.95,1.73-34.42,2.5-7.63.51-15.28.66-22.92.97-1.4.06-2.6-.11-2.54-2.01.04-1.2.48-1.88,1.73-1.95,1.71-.1,3.42-.22,5.13-.34,9.55-.82,19.13-1.23,28.7-1.86,10.43-.24,20.84-.81,31.28-.95,3.56-.05,7.14-.34,10.71-.37.5,0,1.02,0,1.48-.21.66-.29.65-.71.05-1.07-.64-.38-1.37-.35-2.09-.38-11.08-.33-22.16.2-33.23.57-5.56.19-11.16-.22-16.69.67-5.89-.31-11.77.97-17.66.2Z"/>
    <path class="cls-23"
          d="m333.85,193.58c1.17-.15.67-1.12.87-1.76.78,3.25,3.62,4.63,5.92,6.5,5.08,4.13,9.73,8.72,14.62,13.07.69.61,1.46,1.51,2.57.6-.13,2.88-.54,5.7-1.91,8.3-1.48,2.79-2.51,5.68-2.37,8.95.1,2.45-1.31,4.6-1.95,6.92-.98,3.53-2.12,7.03-3.33,10.49-.77,2.21-1.85,4.3-3.26,6.2-1.33,1.2-2.48,1.02-3.59-.35-1.64-2.02-3.37-3.94-6.29-3.94-1.09-1.32-1.08-2.93-1.06-4.48.13-7.99-.39-16,.35-23.99.37-3.99-.39-7.97-.38-11.98,0-4.84.42-9.69-.17-14.52Z"/>
    <path class="cls-88"
          d="m333.85,193.58c1.54,1.89,1.09,4.23,1.01,6.29-.17,4.91-.24,9.79.13,14.69.16,2.13.28,4.31.06,6.42-.83,8.06-.14,16.13-.36,24.19-.03,1.13.6,2.21.41,3.38-.83.99-.36,2.16-.4,3.24-.07,1.63-.4,3.15-1.42,4.46-.98-.58-1.9.63-2.88.1,1.89-19.71.35-39.47.83-59.21.04-1.78,1.24-3.29.89-5.17-.63-3.4-1.2-6.82-.88-10.3.05-.5,0-1,.04-1.5.06-.64.39-1.14,1.08-1.07.67.07.6.7.6,1.19.01,2.79.13,5.58-.03,8.35-.1,1.77.43,3.33.92,4.94Z"/>
    <path class="cls-44"
          d="m220.97,273.93c-.18.46-1.14.61-.86,1.02.29.42,1.09.48,1.66.7-3.69,1.16-7.45,2.02-11.19,2.99-13.44,3.5-27.12,1.54-40.69,2.1-.63.03-1.3.13-1.83-.37,1.67-.87,3.58-1.35,4.77-3.01.2-.27.6-.39.98-.34,2.27.26,4.55-.16,6.82.24,10.03.33,19.84-1.73,29.74-2.75.85-.09,1.7-.23,2.55-.23,1.22,0,2.05-.47,2.39-1.68.95,1.52,2.19,2.11,3.96,1.38.49-.2,1.13-.04,1.7-.05Z"/>
    <path class="cls-22"
          d="m260.38,274.24c1.04-1.32,2.6-1.48,4.06-1.57,5.9-.38,11.8-.72,17.71-.92,6.7-.23,13.4-.31,20.1-.45.43,0,.89.04,1.27-.1,2.04-.74,2.17.38,1.91,1.91-1.73,1.66-3.91,1.3-5.99,1.3-12.09,0-24.18,0-36.27-.01-.93,0-1.85-.09-2.78-.14Z"/>
    <path class="cls-63"
          d="m180.62,277.26c-1.36.02-2.71.09-4.07.06-1.88-.04-3.63-.15-4.76,1.96-.71,1.32-2.39,1.03-3.73,1.1-2.73-.18-5.45-.37-8.18-.55,2.37-3.38,5.49-4.43,9.58-3.63,2.9.57,5.93.48,8.9.69.76.05,1.58-.16,2.26.38Z"/>
    <path class="cls-2"
          d="m330.41,256.34c.97.16,1.84-2.43,2.88-.1-2.77,5.41-6.79,9.42-12.7,11.3-.46.05-1.02.32-1.31-.21-.29-.53.23-.87.52-1.23.3-.38.85-.48,1.11-.91,2.94-1.9,6.3-3.22,8.25-6.46.47-.78.79-1.62,1.26-2.39Z"/>
    <path class="cls-79"
          d="m235.4,281.59c.13.57.27,1.15.4,1.72-4.94.65-9.83-.38-14.75-.38-1.54,0-2.96-.19-4.24-1.26.45-.82,1.24-.45,1.86-.48,4.63-.25,9.27.35,13.9-.37.99-.15,1.95.3,2.84.77Z"/>
    <path class="cls-37"
          d="m320.9,265.2c-.13.62-.53,1.03-.95,1.49-.97,1.06.38.59.64.86-2.71,1.36-5.6.61-8.41.66-.53.01-.98-.38-.99-.95-.02-.71.61-.64,1.09-.71.76-.1,1.59.15,2.27-.4,2.18.11,4.19-.93,6.35-.97Z"/>
    <path class="cls-18"
          d="m39.31,277.71c1.11.28.82,1.18.75,1.88-.1,1.03-1.02.68-1.65.81-.47-.35-.95-.69-.81-1.39,2.26,1.8,1.49-.4,1.71-1.3Z"/>
    <path class="cls-44" d="m222.18,275.63c1.71-.11,3.42-.5,5.13,0-1.71.58-3.42.56-5.13,0Z"/>
    <path class="cls-83" d="m13.41,144.6c-.21,1.19.71,2.59-.7,3.54,0-1.22-.3-2.51.7-3.54Z"/>
    <path class="cls-21"
          d="m58.97,241.67c-.65.35-.94.92-.75,1.61.6,2.19.1,4.34.04,6.53-.18,6.63-.02,13.26.02,19.9.02,2.54-.26,5.08,0,7.64.06.58-.09,1.63-1.25.76-4.74-3.56-8.65-8.03-13.1-11.9-.23-.2-.23-.64-.34-.97,2.24.13,4.12,1.55,6.61,1.76-.56-.67-1.2-.64-1.74-.77-8.22-1.94-14.25-8.57-14.06-17.74.14-6.56-.22-13.13.18-19.7.14-.48.2-.98.27-1.47.28-1.83.72-2.17,2.37-1.49,1.93.8,3.72-.62,5.64-.18.59.14.87-.84,1.03-1.46.33-1.25.81-2.43,1.53-3.52.98-1.48,2.3-2.33,4.11-2.31,1.94.02,3.84-.37,5.76-.54,3.16-.29,4.71-2.03,4.85-5.2.04-1,.05-2,.29-2.98.63-2.59,2.35-4.03,5.02-4.16,1.57-.07,3.14,0,4.7-.33,3.72-.76,4.95-2.14,5.02-6,.07-3.93.04-7.87,0-11.8-.02-1.56.28-3.14-.23-4.68-1.97-3.56-4.72-6.45-7.94-8.86-1.62-1.21-2.58-2.39-2.19-4.63.4-2.29-.43-3.07-2.75-3.36-.35-.04-.72-.05-1.06-.14-.58-.16-1.18-.45-1.08-1.12.09-.57.75-.57,1.25-.57,2.85.01,5.7-.26,8.55-.31,5.26.05,10.64-1.04,15.73.73,3.36,1.17,7.05,2.29,8.77,6.05.04.06.13.14.11.18-1.44,2.85-.42,5.78-.4,8.71.05,7,.52,14.01-.41,20.99-.15,1.1-.06,2.15.52,3.11,1.16,1.93.53,4.24,1.35,6.24.24.59.32,1.25.64,1.82.72,1.29,2.05,1.44,3.19,1.23.99-.17.23-1.32.42-2,.25-.91-.42-2.22,1.15-2.53.74,1.02.47,2.21.54,3.34-.08.92-.03,1.85-.07,2.78-.04,1.02-.36,1.83-1.48,2.05-1.15.22-1.46,1.03-1.45,2.04.05,3.49-.23,6.98.21,10.46.33,2.58-.3,5.1-.51,7.65-.11,1.29-.22,2.57.34,3.78.31.66.74,1.35,1.55,1.25.92-.11.94-.99.94-1.68,0-2.28-.51-4.53-.38-6.82.16-2.98-.24-5.98.23-8.96.72-1.3,1.6-.55,2.3-.07,2.11,1.43,4.06,3.09,5.92,4.82,2.65,2.45,5.24,4.96,8,7.3,3.86,3.08,7.26,6.77,11.9,8.8.71.52.98,1.04-.07,1.44-.64.24-1.35.21-2,.44-2.73.55-5.43-.13-8.11-.35-11.34-.92-22.53-2.81-33.58-5.49-4.73-1.15-9.54-1.89-14.36-2.5-1.03-.13-2.08-.15-3.55.12,3.03,2.67,5.9,4.88,8.86,6.96,2.4,1.69,4.79,3.38,7.28,4.94.49.31.95.64,1.23,1.17.31,2.09-.11,2.84-2.1,2.61-6.07-.69-12.14-.16-18.21-.43-1.59-.07-2.53-.68-2.41-2.5.18-2.85-.17-5.71.19-8.56-.18-2.62-1.71-1.55-3.01-1.11Z"/>
    <path class="cls-16"
          d="m307.63,163.63c-.17.32-.29.64-.08,1,2.2,3.79,1.36,7.82.82,11.79-.15,1.06-.39,2.12-.27,3.17.47,4.03-.83,7.9-1,11.88-.07,1.75-1.15,3.47-1.9,5.08-.36.77-2.17,1.44-3.55,1.31-1.96-.18-2.57.51-3.22,2.55-.99,3.1-1.37,6.28-2.14,9.39-.03.14-.15.28-.13.4.61,3.73-2.61,5.83-3.68,8.79-.91,2.51-2.26,2.84-4.6,3.15-3.5.46-7.04,1.18-9.93,3.73-1.01.89-2.73.53-4.1-.02-1.4-.56-2.85-.82-4.35-.91-.62-.42-.75-1.11-.94-1.76,1.46-1.12.63-2.25.02-3.37.34-.52.91-.72,1.4-1.03,1.62-.62,3.33-.77,5.04-.91,2.78-.23,4.08-1.28,4.44-4.02.29-2.25,1.55-3.41,3.53-4.09,1.64-.56,3.33-.76,5.04-.96,2.73-.32,3.59-1.13,3.49-3.86-.11-2.91.82-5.27,2.78-7.38,1.52-1.64,2.01-3.72,2-5.95-.02-5.86-.03-11.72.02-17.59,0-.48.08-.94.23-1.39,1.22-1.85.31-3.52-.44-5.19-.26-.58-.72-1.05-.96-1.65-.39-.97-.19-1.57.94-1.86,1.12-.29,2.26.06,3.35-.31l8.19.02Z"/>
    <path class="cls-11"
          d="m100.57,208.22c-.61.84-.17,1.81-.34,2.7-.15.84.54,2.3-.47,2.41-1.49.15-3.51.59-4.38-1.32-.6-1.33-1.04-2.83-1.1-4.28-.08-1.84-.3-3.5-1.42-5.03-.82-1.12-.01-2.39.15-3.49.58-4.06.32-8.12.3-12.18-.02-4.04.51-8.11-.73-12.12-.51-1.67.83-3.04,1.6-4.46,3.67,2.96,5.84,6.62,6.18,11.47.25,3.63.14,7.24.22,10.85.03,1.35-.12,2.86,1.36,3.72-.49.27-.47.69-.3,1.14-.05.2-.1.43-.24.58-1.22,1.35-1.39,2.75-.26,4.25,0,1.94.74,3.96-.59,5.76Z"/>
    <path class="cls-94"
          d="m69.7,163.67c-3.14.38-6.28.82-9.51.79.27.94.93.72,1.45.75,3.17.17,4.36,1.38,3.72,4.38-.35,1.64.1,2.37,1.36,3.3,3.51,2.58,6.67,5.53,8.63,9.54-.04.78.05,1.57-.06,2.35-.21,1.59-.98,2.82-2.56,3.37-1.14.39-2.29.88-3.51.84-2.7-.09-5.25.29-7.51,1.91-.34.24-.78.39-1.17,0-.54-.8-.35-1.73-.46-2.61,0-3.36-.04-6.73.01-10.09.11-1.34-.09-2.71.22-4.02.68-2.9-.79-4.75-2.95-6.26-1.43-.99-3.1-1.33-4.77-1.71-1.06-.24-2.29-.35-2.62-1.75,1.37-.95,2.93-.89,4.49-.87,5.08.05,10.15.06,15.23.09Z"/>
    <path class="cls-108"
          d="m34.92,228.81c-.28,7.49-.28,14.99.1,22.46.34,6.74,6.88,13.28,13.72,14.49.98.17,2.94-.19,2.67,1.21-.35,1.81-2.03.49-3.02.24-1.67-.43-3.43-.79-4.81-1.97-1.39-1.64-3.44-2.21-5.2-3.26-3.84-3.94-5.87-8.57-6.05-14.16-.64-20.38-.45-40.76-.19-61.15.05-4.05.02-8.19,2.02-11.93.59-1.11.99-2.44,2.55-2.62.83.5.62,1.25.31,1.87-1.94,3.88-1.42,8.02-1.39,12.12.07,3.14-.08,6.27-.03,9.41-.02,2.76-.03,5.53-.4,8.27-.2,1.51.48,2.94.41,4.44.16,3.42-.45,6.84,0,10.26-.11,3.45-.68,6.88-.68,10.34Z"/>
    <path class="cls-72"
          d="m193.08,118.13c-3.8-1.57-7.63-2.97-11.86-2.54.78-2.64.21-5.32.25-7.99.02-1.35-.6-1.69-1.82-1.65-1.91.07-3.82.02-5.73.05-.88.01-1.69-.09-2.28-.85-.07-.2-.15-.41-.15-.62q-.07-2.61-2.76-2.68-.8-.02-1.65-.56c-.68-.87-.21-1.66.52-1.91,1.32-.45,2.54-1.23,4.07-1.1,8.74.72,17.52.4,26.27.63,1.26.03,2.14.21,1.81,1.76-.6,1.07-1.57.6-2.41.54-.88-.07-1.78-.18-1.98.97-.2,1.12.5,1.63,1.47,1.95.71.23,1.58-.04,2.15.65-.05,1.48-1.21,1.16-2.05,1.17-3.27.04-6.54.08-9.81-.02-1.53-.05-2.05.51-1.88,1.97.08.7,0,1.42,0,2.13.02,4.15.28,4.47,4.27,5.42,1.25.3,2.39.82,3.39,1.65.39.32.6.6.18,1.02Z"/>
    <path class="cls-24"
          d="m279.75,166.2c.98-.86,2.12-1.07,3.37-.89,2.6.34,5.19.74,7.54,2.01,1.3.7,2.38,1.55,2.65,3.12.15,4.3-.63,8.56-.56,12.85.02,1.46-.53,2.63-2.14,2.68-3.55.1-7.09.18-10.61.67-.87-1.83-.31-3.77-.44-5.66-.08-1.2,0-2.41-.05-3.62-.09-3.32.07-6.65-.1-9.97-.02-.43,0-.85.33-1.19Z"/>
    <path class="cls-1"
          d="m49.98,164.45c1.41,1.27,3.26,1.23,4.95,1.68,3.71.99,6.67,4.27,6.15,7.1-.27,1.48-.26,2.96-.4,4.43-1.81,1.26-3.91,1.71-6.02,1.84-2.72.16-5.11,1.02-7.34,2.53-.66.45-1.31,1.51-2.35.54-.58-2.49-.14-5.01-.29-7.51.24-3.14-.58-6.37.87-9.4,1.48-.4,2.96-.8,4.44-1.21Z"/>
    <path class="cls-102"
          d="m279.75,166.2c.9,3.66.23,7.37.37,11.05-.73,1.87-.11,3.78-.18,5.67-.09,2.62-.43,3.1-2.94,3.56-1.48.27-2.82.97-4.27,1.31-1.28.3-2.53.5-3.54-.66-.81-3.5-.26-7.04-.32-10.56-.01-.76.3-1.55-.22-2.27,2.33-4.58,6.42-6.74,11.1-8.11Z"/>
    <path class="cls-29"
          d="m250.61,173.52c2.26,1.71,4.6,3.33,6.77,5.16,2,1.68,3.82,3.58,5.72,5.38.57.54,1.13,1.1,2.01,1.07,1.55,1.49.97,3.42,1.03,5.2.05,1.34-.18,2.67-.72,3.93-.55.77-1.35.79-2.1.54-2.21-.74-4.48-1.32-6.68-2.11-3.83-1.38-5.13-4.84-6.66-8.11-.23-2.97-.11-5.95-.09-8.92,0-.77,0-1.58.72-2.13Z"/>
    <path class="cls-47"
          d="m265.1,194.43c.35-3.1.71-6.21.01-9.31.62-3.79,1.86-7.38,3.54-10.82.89.17,1.13.79,1.02,1.58-.55,3.76-.16,7.53-.22,11.3.51.58.58,1.3.57,2.02-.05,2.35-.09,4.7-.2,7.05-.36,1.01-1.21,1.08-2.05.97-1.31-.17-2.62-.1-3.92-.19-10.87-.72-21.72-1.56-32.49-3.28-3.08-.49-6.26-.27-9.32-1.07-.04-.55-.97-1.02-.15-1.65,3.55-.91,7.06-.08,10.59.19,5.18.4,10.18,2.06,15.42,1.98,4.98-.17,9.77,1.23,14.67,1.75.95.1,1.82.32,2.55-.5Z"/>
    <path class="cls-81"
          d="m45.54,165.66c.27.02.79.09.69.24-1.83,2.77-.6,5.86-1,8.77-.73,1.65-.32,3.38-.36,5.07-.07,3.02-.03,3.02-2.94,2.91-.78-.03-1.57.02-2.35-.04-2.01-.16-3.77-.05-3.81,2.64,0,.34-.32.62-.75.61-.07-4.34-.58-8.74,1.77-12.75.14-.24-.05-.67-.09-1.01,2.19-3.2,4.78-5.83,8.84-6.45Z"/>
    <path class="cls-54"
          d="m101.54,197.44c-.53-.61-.2-.85.42-.95,1.78-.01,3.41-.7,5.1-1.11,2.55-.77,5.27-.09,7.81-.94l-.04.03c.81-.87,2.13-.38,2.97-1.14,1.04-1.4,1.07-3.05,1.17-4.68.06-1.13-.12-2.28.24-3.39,1.47-1.03,1.68-3.31,3.74-3.75.25.77.3,1.63.97,2.21.12,1-.61,1.56-1.2,2.14-1.2,1.16-1.71,2.61-1.95,4.18-.33,2.18.33,2.82,2.53,2.69,3.99-.24,7.88-1.19,11.84-1.64,3.74-.42,7.49-.8,11.25-1.12,2.86.27,3.26.65,2.97,2.86-.84,1.04-2.04,1.31-3.26,1.32-7.24.09-14.28,1.94-21.48,2.34-5.06.28-10.06,1.15-15.14,1.14-1.93,0-3.82.55-5.76.42-.78-.05-1.59,0-2.19-.65Z"/>
    <path class="cls-19"
          d="m148.26,155.4c.08.07.09.15.01.24-.83,1.12-2.07.81-3.17.81-7.51.03-15.03.01-22.54.02-3.63,0-3.65,0-3.62,3.73.02,1.76-.36,3.61.94,5.14.07.12.2.31.15.37-1.16,1.38-.59,2.85-.22,4.3-.44,3.59-.75,7.2-1.51,10.74-1.2-.2-1.01-1.2-1.06-1.98-.1-1.48-.06-2.96-.03-4.45.02-.9-.16-1.66-.84-2.28-.61-7.04-.08-14.08-.06-21.12,0-2.21.06-4.42-.3-6.61-.16-.97-.25-2,.52-2.84,1.11-.25,2.21-.39,3.28.12-.41.11-1.58-.21-.59.76.9.88,2.06,1.49,3.07,2.27.95.73,2.02,1.34,2.5,2.54-1,.98-2.28.6-3.46.69-2.38.19-2.9.89-2.84,4,.04,2.46.36,2.83,2.89,2.84,8.13.03,16.26.02,24.39.02.86,0,1.9-.44,2.48.67Z"/>
    <path class="cls-57"
          d="m250.61,173.52c-.04,3.79-.08,7.57-.12,11.36.17,1.88.43,3.77.16,5.66-.07.52-.09,1.28-.84,1.24-.55-.03-.6-.7-.7-1.17-.57-2.64-.4-5.36-.85-8.01-.17-3.39-.11-6.79-.05-10.18.03-1.72-.14-2.97-2.32-2.6-.21.03-.37-.18-.52-.33.4-.62.91-1.1,1.66-1.24,1.66-.3,2.06-1.32,1.66-2.82-.89-1.68-.49-3.49-.52-5.25-.06-3.64-.02-3.62-3.58-3.74-.96-.03-2.04.19-2.72-.81.66-1.23,1.86-.81,2.85-.85,3.58-.11,3.57-.08,3.5-3.54-.02-1.14-.08-2.28.16-3.4.12-.55.35-1.07.43-1.63.35-2.59-.36-3.43-2.95-3.58-.81-.04-1.73.16-2.28-.73,1.01-.99,2.25-.28,3.37-.46.89-.14,1.82.13,2.72-.16,1.37.2.87,1.3.88,2.03.05,10.07.06,20.13.07,30.2Z"/>
    <path class="cls-75"
          d="m207.3,149.46c-.03.78-.18,1.57-.08,2.33.44,3.38.18,3.9-2.94,5.43-.77.37-1.52.77-2.29,1.15-1.59-.2-.89-1.24-.76-2.07.92-1.79.77-3.63.62-5.61-.36-4.76-2.34-9.1-3.16-13.72-.21-1.2-.46-2.39-.03-3.59,1.07-1.05,1.27.56,1.97.64.42.28.53.81.88,1.15.59,1.99.99,4.02,1.13,6.09.29.48,1.06.35,1.24.98-.04,2.4,1.34,4.27,2.34,6.28.33.34.88.44,1.07.94Z"/>
    <path class="cls-25"
          d="m293.01,169.99c-2.03-2.69-5.03-3.37-8.09-3.86-.7-.11-1.42-.05-1.8-.82,2.38-1.18,4.98-1.53,7.56-1.68,2.91-.18,5.84-.02,8.76-.01-.66.62-1.49.25-2.23.37-2.12.33-2.28.73-1.02,2.48.97,1.34,1.41,2.88,1.56,4.52.06.69-.19,1.25-.8,1.61-.61-1.93-2.52-1.89-3.94-2.6Z"/>
    <path class="cls-6"
          d="m116.54,141.48c.53,6.61.61,13.21.12,19.84-.27,3.6.55,7.22.05,10.84.11.28.05.51-.23.65-1.35-.38-1.1-1.5-1.1-2.46-.02-6.56-.02-13.12-.04-19.68,0-2.42.15-4.83-.42-7.23-.28-1.17,0-2.2,1.62-1.96Z"/>
    <path class="cls-58"
          d="m116.48,172.81c.08-.22.15-.44.23-.65,1.01-.15,1.19.43,1.17,1.27-.03,1.78-.03,3.55,0,5.33.01.68-.25,1.45.46,1.97q1.26.13.39,1.82c-.58,3.02-.12,6.06-.22,9.09-.03.77.12,1.55-.22,2.29-1.08.64-2.26.59-3.45.55,1.55-7.14,1.31-14.43,1.65-21.66Z"/>
    <path class="cls-32"
          d="m203.54,142.04c-.39-.15-1.11.07-.89-.78,15.67,0,31.34.02,47.01.03-1.87.94-3.95-.02-5.86.63-.63.91-1.62.83-2.52.83-11.71.04-23.41.03-35.12.01-.94,0-1.86-.05-2.62-.72Z"/>
    <path class="cls-111"
          d="m200.67,134.33c-1.09.3-1.14-.72-1.58-1.25-.42-.21-.55-.63-.67-1.03-.99-3.47-2.22-6.83-4.48-9.73-.18-.23-.2-.52-.14-.81.61-.54,1.21-1.08,1.82-1.61,3.2,2.53,4.87,5.86,5.1,9.91.05.92.04,1.84.06,2.75.34.61.48,1.21-.12,1.76Z"/>
    <path class="cls-100"
          d="m198.98,104.78c-2.93.19-4.13-.45-4.31-2.23-.15-1.46.42-2.14,1.93-2.04,1.05.07,2.08.45,3.15.15.16,1.45.58,2.95-.77,4.12Z"/>
    <path class="cls-10"
          d="m167.08,101.29c.63,0,1.27-.03,1.9-.01,3.58.11,3.75.37,2.66,3.87-.42,0-.84-.02-1.26-.03-3.32-.02-3.75-.51-3.3-3.83Z"/>
    <path class="cls-87"
          d="m114.87,194.44c-2.46,1.46-5.16,1.01-7.81.94.7-1.11,1.82-.95,2.88-.95,1.64,0,3.28,0,4.93.01Z"/>
    <path class="cls-27" d="m200.67,134.33c.04-.59.08-1.17.12-1.76,1.27.58.6,1.7.73,2.6-.57.01-.7-.42-.85-.84Z"/>
    <path class="cls-42" d="m319.26,164.35c-1.24.1-2.39-.23-3.49-.78,1.18.18,2.6-.69,3.49.78Z"/>
    <path class="cls-9"
          d="m201.55,156.66c.14.57-.66,1.39.45,1.71-1.52,2.06-3.08,4.08-4.52,6.19-.4.59-1.33,1.16-.84,2.03.41.73,1.3.3,1.98.38,1.66.2,3.04-.66,4.27-1.51,1.67-1.16,3.06-.87,4.49.24.92.71,1.55,1.15,2.75,0,1.55-1.5,5.48.27,6.02,2.49.12.47-.04,1.01.41,1.38.19.74-.44.88-.85,1.18-2.26.93-4.11,2.74-6.64,3.09-1.22.12-2.43.82-3.65.01-5.74-1.54-11.65-1.94-17.52-2.58-3.75-.41-7.51-.76-11.09-2.11-4.27-1.61-7.01-4.5-7.91-9.02-.56-1.49.05-2.54,1.39-3.1,1.49-.63,2.39.3,3.13,1.47,1.57,2.52,2.3,2.67,5.06,1.63,1.82-.69,3.51-1.89,5.59-1.77.85,2.52.54,5.04.07,7.57-.26,1.39-1.58,1.48-3.07,2.11,3.31.93,5.9.24,8.59-.49,4.74-1.28,6.27-4.94,7.31-9.09.07-.28.1-.56.17-.84.32-1.27.03-3.14,1.55-3.46,1.48-.31,2.01,1.51,2.87,2.49Z"/>
    <path class="cls-77"
          d="m242.06,155.52c1.67.43,3.37.35,5.06.3,1.29-.04,1.77.5,1.73,1.76-.09,2.61-.1,5.23-.15,7.84-.68-.18-1.05.49-1.63.59-1.23-.38-2.41.11-3.6.25-5.41.61-10.82.76-16.24.09-.49-.06-1-.09-1.47.14-2.89.54-5.65-.9-6.75-3.71-.36-.91-.81-1.75-1.22-2.62-1.01-2.72-.61-4.02,1.62-5.23,3.91-.52,7.84-.15,11.77-.23,2.71-.06,5.43-.04,8.14,0,.97.02,2.04-.15,2.75.82Z"/>
    <path class="cls-97"
          d="m293.01,169.99c.49,0,.97.02,1.46-.02,1.95-.18,2.62.83,2.48,2.62-.02.42-.03.83-.05,1.25-.1,2.63-.77,5.03-2.69,6.96-.35.36-.5.88-.5,1.39,0,3.93-1.1,7.77-.96,11.73.14,3.89-.29,4.28-4.15,5.16-1.81.42-3.63.77-5.46,1.1-1.6.28-2.35,1.2-2.36,2.8-.01,1.5.02,3-.03,4.5-.13,3.85-1.93,5.6-5.76,5.61-.29,0-.58-.06-.86,0-1.16.21-2.52-1.11-3.4.04-.72.94-.22,2.36-.27,3.56-.04.93-.03,1.86-.63,2.66-.3.5-.82.38-1.27.46-.54-.1-1.08-.2-1.3-.81,1.24-.85,1.58-2.03,1.54-3.5-.13-4.41.19-8.83-.35-13.23,1.77-1.42.88-3.08.44-4.71,1.58-.28,1.4,1.07,1.63,1.88.99,3.49,2.37,4.33,5.96,3.69,1.47-.26,2.22-1.02,2.61-2.42.75-2.75.34-5.54.47-8.32.04-.78.01-1.57-.04-2.36.09-1.11-.26-2.32.67-3.25,1.05-1.38,2.66-1.16,4.08-1.29,1.84-.17,3.71-.13,5.56-.02,1.75.11,2.5-.51,2.35-2.32-.32-3.85.64-7.65.46-11.5-.02-.54.23-1.1.36-1.65Z"/>
    <path class="cls-85"
          d="m265.57,218.06c-2.64,1.24-5.15.2-7.64-.51-2.44-.7-4.83-1.62-7.21-2.51-1.47-.55-1.5-.92-.27-1.95.3-.25.43-.52.35-.92-.58-3.05-.09-6.13-.29-9.19-.1-1.53.62-2.38,2.02-2.47,4.5-.29,8.93.12,13.19,1.74.64,1.09.09,2.22.08,3.33-.02,3.47-.07,6.95.03,10.42.02.7.22,1.42-.26,2.05Z"/>
    <path class="cls-89"
          d="m219.29,168.15c1.45-1.03,2.96-1.67,4.71-.7.85.48,1,.91.09,1.51-8.99,5.89-13.9,14.46-15.79,24.8-.78,4.25-.78,8.63-1.15,12.96-.14,1.63-.32,3.26-.48,4.89-.49,1.53-.32,3.12-.39,4.69-.02.15-.05.31-.07.46-1.4.45-1.68-.61-1.71-1.49-.1-3.79-1.23-7.45-1.36-11.22,1.18-7.47,2.26-14.96,4.28-22.27.1-.78.37-1.51.58-2.26.54-1.36,2.08-1.97,2.54-3.39,1.15-2.25,3.44-3.11,5.37-4.42,2.3-.62,3.33-1.71,3.37-3.56Z"/>
    <path class="cls-34"
          d="m248.75,182.63c.99,2.86.28,5.94,1.13,8.98.66-2.3-.24-4.6.61-6.74.86,1.46,1.71,2.93,2.59,4.37,1.27,2.1,3.33,3.03,5.59,3.46,2.2.41,4.09,1.88,6.43,1.73.21,1.02-.41,1.34-1.22,1.22-5.34-.77-10.72-1.29-15.99-2.47.96-.2,1.31-1.09.61-1.47-2.35-1.29-2.32-4.08-3.97-5.8-1.73-1.8-3.27-3.57-6.11-3.53-2.17.03-4.41.56-6.51-.47-.5-.24-1.08-.43-1.15-1.13.7-.65,1.34-.11,1.96.13,1.16.45,2.35.6,3.55.44.77-.1,1.94.12,1.89-1.16-.04-1.12-.79-1.81-1.95-1.86-1.98-.09-3.97-.12-5.96.04-.69.06-1.41.33-2.04-.22.16-1.22,1.13-.87,1.84-.88,3.34-.03,6.67-.02,10.01,0,.73,0,1.45,0,1.84-.77,1.05-.43,1.61.32,2.06.99,1.31,1.98,2.42,4.14,4.78,5.13Z"/>
    <path class="cls-84"
          d="m203.71,203.88c.08,3.91,1.55,7.65,1.34,11.6-.04.75.4,1.19,1.16,1.27-.13,6.73-.26,13.46-.39,20.2-.4,3.63-.06,7.27-.19,10.9-.02.59.3,1.39-.53,1.67-.69.23-1.23-.25-1.69-.7-1.54-1.51-2.38-3.56-1.84-5.47,1.08-3.8.29-7.51.2-11.26,0-8.64-.27-17.28.83-25.88.09-.71.05-1.43.41-2.08.16-.27.39-.35.69-.24Z"/>
    <path class="cls-66"
          d="m202.43,232.22c0,3.74,1.06,7.51-.37,11.23-.37.96.22,1.98.47,2.92.33,1.27,1.2,2.8,2.38,2.7,1.07-.09.42-1.8.51-2.79.27-3.1-.43-6.25.41-9.34,0,5.19-.04,10.39.07,15.58.02,1.23-.59,2.3-1.05,3.11-.71,1.23-.79,2.47-1.14,3.71-.93-.62-1.81-.59-2.78,0-.84.51-1.71,1.05-2.79.84-.83-.5-2.26.34-2.65-.82-.38-1.17.87-1.82,1.53-2.61,2.05-2.48,2.32-5.6,3.04-8.55,1.1-4.51,1.31-9.12,1.38-13.74.01-.83-.31-1.93.99-2.24Z"/>
    <path class="cls-36"
          d="m248.75,182.63c-1.72,0-2.79-.8-3.62-2.36-.77-1.44-1.6-2.99-3.22-3.77-.2-1.27-1.35-1.36-2.22-1.66-.88-.3-1.31-.83-1.36-1.67-.06-.85.67-.92,1.27-1.17,1.94-.81,3.86-1.68,5.79-2.52.07,0,.15,0,.21.03,1.09.36,2.21-1.54,3.03-.26.53.83.22,2.21.21,3.34,0,3.35-.05,6.69-.07,10.04Z"/>
    <path class="cls-107"
          d="m280.08,190.13c-.11,3.89.65,7.82-.67,11.68-.35,1.01-.65,1.59-1.8,1.7-1.12.1-2.21.45-3.37.41-2.36-.09-3.29-.97-4.07-3.25-.36-1.03.37-2.6-1.27-3.11-1.67-.35-3.45.43-5.06-.53,1.05-.35,2.09-.49,3.18-.11.82.29,1.65.4,2.32-.37,2.05-.92,4.31-.74,6.46-1.16,1.85-.36,3.03-1,2.97-3.12-.03-.89.13-1.89,1.31-2.13Z"/>
    <path class="cls-62"
          d="m259.07,254.49c-9.55.87-19.11,1.28-28.7,1.27,2.8-.72,5.68-.81,8.64-1.17-2.03-.74-4.07-1.48-6.1-2.21.33-.11.66-.31.99-.31,5.53.05,11.03-.81,16.56-.51,2.54.35,4.78,1.96,7.48,1.71.6-.06,1.24.36,1.12,1.21Z"/>
    <path class="cls-68"
          d="m265.57,218.06c-.55-5.28-.81-10.55.16-15.81.91,0,1.82,0,2.73,0,.64.78,1.01,1.6.99,2.69-.07,4.06-.09,8.12,0,12.17.04,1.7-.65,2.18-2.18,1.86-.57-.31-1.14-.62-1.7-.93Z"/>
    <path class="cls-17"
          d="m225.76,166.5c-.13-1.01.63-.75,1.12-.72,6.11.43,12.21.51,18.29-.39.7-.1,1.44-.11,1.9.62-3.57,1.61-7.14,3.22-10.71,4.83-.51.23-1.08.71-1.58.23-2.56-2.41-5.9-3.27-9.01-4.58Z"/>
    <path class="cls-103"
          d="m247.87,213.17c-.53,1.23-1.42,1.12-2.49.77-4.38-1.42-8.78-2.81-13.18-4.17-2.17-.67-4.37-1.23-6.55-1.89-1.08-.32-2.52-.68-1.96-2.17.52-1.39,1.7-.39,2.56-.11,6.69,2.12,13.51,3.86,20.1,6.31.69.26,1.37.4,1.52,1.25Z"/>
    <path class="cls-12"
          d="m268.55,223.17c1.11.16.74,1.12.94,1.76-.02,2.5-.02,4.99-.09,7.49-.02.63.24,1.59-.94,1.52-1.06-.07-2.65.44-2.89-1.03-.51-3.1-.24-6.25-.13-9.39.02-.61.38-.91,1.02-.57.67.36,1.38.3,2.09.23Z"/>
    <path class="cls-113"
          d="m219.11,155.45c-2.05,1.12-.97,3.12-1.33,4.72-2.01-1.34-2.82-3.46-3.78-5.53-1.32-2.85-3.42-4.81-6.7-5.18-.49-.14-1.09.05-1.45-.48.7-1.39,1.85-1.88,3.35-1.7,2.96.49,5.28,1.87,6.68,4.64.74,1.46,1.88,2.6,3.23,3.53Z"/>
    <path class="cls-48"
          d="m228.21,178.16c2.73-.72,5.51-.46,8.28-.42,1.18.01,3.01,2.38,2.72,3.4-.16.54-.67.42-1.05.53-2.59.74-5.03.23-7.4-.89-.75-.97-2.57-.9-2.54-2.62Z"/>
    <path class="cls-45"
          d="m221.88,191.02c.05.55.1,1.1.15,1.65-1.32-1.38-3.04-.06-4.56-.68-1.01-.41-2.12-.64-3.11-1.32,2.15-.31,4.31-1.46,6.34.33.45.39.79.03,1.18.01Z"/>
    <path class="cls-82"
          d="m219.29,168.15c.5.23,1.41.67.88,1.08-1.3,1.02-1.91,3.13-4.1,2.88-.41-.52-.51-1.12-.47-1.76.32-.26.64-.52.96-.79.91-.47,1.82-.94,2.73-1.41Z"/>
    <path class="cls-84" d="m206.28,216.29c-.71-1.63-.51-3.19.39-4.69-.07,1.57.52,3.19-.39,4.69Z"/>
    <path class="cls-21"
          d="m159.44,205.23c.61,12.33,1.18,24.66,1.85,36.99.24,4.41.96,8.78,1.86,13.1.43,2.07.13,3.69-1.18,5.53-2.89,4.08-6.53,7.56-9.18,11.81-.93,1.49-2.38,1.41-3.82,1.14-12.06-2.21-24.17-3.99-36.38-5.14-6.09-.57-12.15-1.44-18.22-2.2-.34-.04-.66-.24-1-.37-3.79.07-7.46-.74-11.15-1.5-5.38-1.11-10.89-1.09-16.34-1.7-1.81-.2-3.58-.4-4.44-2.36-.03-2.69.89-3.56,3.64-3.29,6.38.61,12.78,1.13,19.1,2.03,5.76.82,11.63.99,17.28,2.55,10.47,3.7,21.52,4.27,32.35,6.06,3.04.5,6.15,0,9.2.51.89.15,1.56-.29,1.56-1.31,0-1.44-.55-2.62-2.11-2.75-2.28-.18-4.55-.44-6.83-.6-7.19-.52-14.43-.37-21.58-1.43-1.96-.35-3.91-.72-5.91-.77-.54-.01-1.31-.01-1.38-.7-.08-.74.73-.73,1.22-.91,1.4-.51,3.01-.14,4.32-1.01,3.78-.82,7.53.38,11.3.21,5.78-.26,11.54.62,17.33.38.57-.02,1.14.01,1.71-.06.76-.1,1.4-.34,1.41-1.28,0-.83-.56-1.06-1.21-1.25-1.74-.5-3.55-.33-5.31-.62-4.25-.63-8.51-.78-12.8-.73-1.02.01-2.75.39-2.83-.7-.09-1.2,1.63-.81,2.6-1,5.42-1.07,10.9-1.35,16.41-1.21.43.01.85-.07,1.25-.24.59-.25,1.17-.52,1.65-.97.68-.63,1-1.39.79-2.31-.24-1.03-1.08-1.17-1.97-1.31-2.6-.43-5.25-.29-7.86-.67-2.1-1.93-2.29-4.42-2.08-7.04.04-1.24.03-2.49.55-3.66,1.04-2.07,3.24-2.28,5.05-2.84,2.29-.71,3.57-1.97,4.37-4.19.86-2.41,1.97-4.74,3.01-7.08.28-.63.75-1.24.44-2.12-.98.2-1.27,1.06-1.66,1.75-.95,1.67-1.79,3.41-2.55,5.18-.91,2.12-2.36,3.18-4.81,3.1-2.77-.09-5.56-.28-8.32.16-2.38.57-4.29,1.82-5.68,3.85-1.84,1.31-3.06-.61-4.59-.87-.76-.47-1.05-1.2-1.18-2.03-.02-.14-.04-.28-.04-.42-.06-4.63-.16-5.44,4.17-6.52,1.77-.44,3.44-1.36,5.06-2.26,1.61-.89,1.89-2.78.94-5.33-.63-1.69-1.94-1.07-3.07-.88-3.32.56-6.37,2-9.57,2.97-1.73.57-3.33,1.52-5.15,1.79-.83.12-1.68.14-2.48-.23-1.28-1.42-.21-2.01.95-2.38,1.01-.32,2.09-.37,3.15-.54,1.5-.24,2.68-.89,3.39-2.27,2.04-1.29,4.4-1.57,6.69-1.95,1.84-.3,3.62-.73,5.39-1.26,6.17-1.21,12.01-3.75,18.24-4.73,1.59-.25,2.94-1.08,4.36-1.75,2.57-.55,5.2-.78,7.65-1.86,1.4-.62,2.33-.16,2.43,1.49Z"/>
    <path class="cls-26"
          d="m201.55,156.66c-1.02-.05-1.41-.83-1.87-1.56-.22-.36-.52-.8-.97-.72-.47.09-.53.6-.59,1.03-.39,2.9-1.37,5.63-2.4,8.36-.41,1.08-1,2.01-1.91,2.47-3.69,1.84-7.44,3.55-11.76,2.76-.66-.12-1.65,0-1.64-.95,0-.81.83-1.14,1.58-1.05,1.28.14,1.52-.63,1.72-1.62.47-2.34.16-4.68.2-7.02-.88-1.11-.45-2.42-.56-3.65-.07-.76.13-1.54-.2-2.28-.32-.56-.86-.71-1.45-.75-4.89-.31-9.39.62-13.07,4.15-.64.62-1.18,1.51-2.3,1.31-2.08-2.79-3.07-5.58-1.76-9.23,2.11-5.89,2.65-12.19,3.89-18.3,1.33-6.55,5.89-10.5,12.65-10.51,1.85,0,3.7-.05,5.55-.08,2.69-.05,4.85,1.41,7.14,2.5,3.04,3.27,4.51,7.25,5.29,11.56-.21,3.41.69,6.61,1.78,9.8,1.32,3.85,1.85,7.84,1.6,11.92-.05.78-.44,1.32-.92,1.85Z"/>
    <path class="cls-33"
          d="m215.61,170.35c.77.42.43,1.14.47,1.76-1.78,1.29-3.79,2.3-5.06,4.19-1.92,1.76-4.33,3.01-5.7,5.35-.48.66-1.18,1.07-1.78,1.59-1.79,2.24-4.35,3.77-5.78,6.34-1.28,1.94-3.05,3.47-4.49,5.27-1.73,2.06-3.24,4.26-4.32,6.74-2.39,4.06-2.83,8.59-3.21,13.13-.03.23-.09.46-.15.68-.48,1.44-.62,2.92-.61,4.43.03,4.43.08,8.86,0,13.29-.07,3.66-.94,6.97-3.92,9.57-2.41,2.11-2.88,5.34-3.77,8.26-.66,2.19-1.13,4.42-1.71,6.63-.2.77-.33,1.63-1.22,1.86-.98.26-1.59-.44-2.15-1.1-.36-.43-.53-1.03-1.19-1.15-2-1.17-1.96-3.18-2.1-5.12-.26-.46-.17-.97-.17-1.47,0-9.97,0-19.94,0-29.91,0-.49-.08-1,.16-1.47.13-7.84,3.24-14.48,8.24-20.32,7.49-8.75,16.74-15.33,26.5-21.25.91-.55,1.89-1,2.4-2.02.81-1.14,2.35-1.2,3.25-2.2,2.1-1.03,4.21-2.06,6.31-3.1Z"/>
    <path class="cls-76"
          d="m203.33,182.87c.56-.44,1.11-.87,1.67-1.31,1.12-.78,1.68-2.47,3.47-2.17-.17.72-.34,1.44-.51,2.16-1.1,3.45-3.04,6.68-3.24,10.35-.17,3.13-.54,6.22-.97,9.31-.12.91-.5,1.78-.4,2.71-.91,9.42-1.01,18.86-.92,28.3-.68.64-.45,1.48-.4,2.23.23,3.36-.17,6.72-.59,9.99-.49,3.74-1.36,7.5-2.74,11.07-.58,1.52-2.17,2.23-3.13,3.76.93.21,2.05-.09,2.56.92-3.96,2.38-8.19,3.75-12.87,3.31-.84-3.57-1.51-7.13,1.14-10.31,2.48-2.98,3.92-6.51,4.89-10.17,2.05-7.66,3.96-15.4,4.37-23.34.4-7.82,2.16-15.4,3.43-23.06.15-.92.17-1.85.22-2.77.71-2.7,2.28-5.12,2.6-7.95.16-1.15.93-2.01,1.41-3.01Z"/>
    <path class="cls-73"
          d="m115.69,274.23c8.31,1.02,16.69.85,25.03,1.23,4.24.2,8.27,1.46,12.45,1.89.69.07.78.41.46,1.03-.39.75-.95,1.3-1.74,1.46-2.02.41-4.06,1.04-6.09,1.05-26.88.06-53.76.04-80.64,0-1.03,0-2.12.49-3.13-.16-1.39-2.66-.4-5.4-.25-8.1.03-.5.59-.62.94-.17.45.58.89,1.11,1.7,1.11,6.14.13,12.27.07,18.4.04,8.55-.04,17.11.15,25.66.04,2.42-.03,4.83.24,7.22.59Z"/>
    <path class="cls-52"
          d="m101.54,197.44c13.21-.47,26.36-1.67,39.42-3.68,2.73-.42,5.61.3,8.22-1.03,2.15-1.05,4.5-1.28,6.81-1.7.73-.13,1.45.02,1.7.91.67,2.2.15,4.57,1,6.74.39,3.47.08,3.97-3.21,4.67-2.01.43-4.03.79-6.05,1.12-4.64.89-9.06,2.6-13.61,3.83-3.24.88-6.46,1.82-9.76,2.45-1.03-.15-1.16-.74-.61-1.49,1.36-1.82.41-3.72.24-5.58-.07-.85-.67-1.21-1.54-.97-.82.23-1.63.52-2.47.68-.94.17-2.02.29-2.61-.5-2.12-2.83-4.9-1.84-7.6-1.52-3.65.62-7.32.84-11,.37-.9-.52-1.48-1.07-.54-2.11.6-.67,1.08-1.46,1.61-2.19Z"/>
    <path class="cls-52"
          d="m146.11,190.52c-8.09.53-16.05,2.19-24.11,2.97-1.17.11-1.54.02-1.74-1.24-.41-2.58.15-4.76,1.9-6.66.58-.62,1.16-1.23,1.75-1.85,4.02-3.58,9.1-4.36,14.1-5.27.1-1.05-.77-.82-1.18-.96-1.23-.43-1.91-1.31-2.02-2.5-.11-1.13.84-1.74,1.69-2.27,3.35-2.06,9.01-1.62,12.05.96,4,3.39,6.84,7.57,8.41,12.59.52,2.95.04,3.4-2.89,4.08-2.69.63-5.32-.14-7.96.14Z"/>
    <path class="cls-43"
          d="m199.83,193.56c.34,3.61-.75,7.11-1.46,10.51-1.36,6.51-1.72,13.08-2.46,19.63-.67,5.92-2.03,11.74-3.55,17.51-1.27,4.83-2.74,9.53-6.33,13.25-.67.7-.81,1.62-.79,2.59.04,2.14,0,4.29,0,6.43-1.19-.03-2.38-.07-3.57-.1,2.07-1.02,2.17-2.84,2.08-4.83-.1-2.2.1-4.42-.05-6.61-.38-5.78.92-11.43,1.14-17.16.79-2.29,2.18-4.28,3.1-6.54,1.67-4.13,2.39-8.41,2.6-12.75.17-3.48.99-6.65,2.78-9.55,2.16-3.51,2.94-7.59,4.91-11.16.34-.61.39-1.67,1.58-1.22Z"/>
    <path class="cls-99"
          d="m63.74,274.31c-1.13,0-.96-1.22-1.61-1.76-.22,2.77-1.02,5.46-.1,8.17-.7-.17-.81-.73-.79-1.31.09-2.91-.31-5.84.33-8.73-.19-3.39-.48-6.79.15-10.17,1.15,1.35,2.66,1.65,4.37,1.82,6.77.66,13.64.58,20.23,2.55,2.32.69,4.87-.09,7.06,1.23-.41.21-1.13-.32-1.28.36-.16.74.58.9,1.09,1.08,4.39,1.57,8.8,3.11,13.2,4.66.26.09.5.25.74.38.32,1.66-1,1.52-1.86,1.46-1.77-.14-3.56-.18-5.32-.45-5.44-.84-10.92-1.21-16.43-1.21-5.5,0-10.97-.65-16.48-.47-1.79.06-3.1.36-3.3,2.4Z"/>
    <path class="cls-77"
          d="m119.85,166.05c-1.24-.8-1.7-1.91-1.57-3.41.13-1.56.14-3.15,0-4.71-.17-1.86.67-2.31,2.35-2.3,8.86.05,17.71.03,26.57.03.36,0,.71-.02,1.07-.03-.31,2.4-.63,4.81-.93,7.21-.13,1.04-.46,1.93-1.46,2.44-3.42.37-6.85.1-10.27.15-.29,0,.09,0-.19.05-.17.03-.16.16.03.28-4.43.15-8.86.31-13.29.46-.81.49-1.59.57-2.31-.17Z"/>
    <path class="cls-46"
          d="m148.26,155.4c-9.03-.01-18.06-.03-27.09-.04-3.28,0-3.32-.04-3.33-3.35,0-.78,0-1.57.04-2.35.07-1.54.92-2.35,2.43-2.41,1.49-.06,2.99-.04,4.49-.06,1.18.38,2.4.23,3.61.23,8.55,0,17.11-.02,25.66-.02.4,0,.8.07,1.33.3-3.38,1.71-5.01,4.93-7.14,7.71Z"/>
    <path class="cls-59"
          d="m185.3,234.39c-.52,9-1.23,17.99-.92,27.01.08,2.36-1.56,1.66-2.69,2-4.57-.32-8.3-2.1-10.68-6.2,1.12-.44,1.12.69,1.6,1.15.47.45.99.93,1.66.77.66-.16.57-.86.7-1.41,1.19-4.82,2.04-9.75,4.45-14.2.24-.45.52-.82.95-1.12,3.05-2.18,3.92-5.41,3.99-8.9.1-4.85.04-9.71.04-14.56,0-1.35.08-2.68.89-3.83.5.49.6,1.14.61,1.78.08,4.94.08,9.87,0,14.81-.02.91-.18,1.85-.6,2.7Z"/>
    <path class="cls-69"
          d="m61.71,260.5c-.05,3.39-.1,6.78-.15,10.17-.41-6.62-.3-13.25-.06-19.88.1-2.67-.65-5.4.47-8.01.01,2.79.09,5.57.02,8.36-.04,1.49.64,2.11,2.02,2.11,4.43,0,8.87.11,13.29-.08,1.75-.08,3.35.53,5.05.56,1.79.03,2.47-.47,1.59-2.22.47-.47,1.01-.43,1.58-.2.76,1,1.35,2.13,2.28,3.01.59,1.13,1.72,1.34,2.79,1.7.59.2,1.67.06,1.34,1.28-.61.71-1.39.63-2.17.42-5.41-1.42-11-1.68-16.5-2.56-3.05-.49-6.24.09-9.4.1,2.04.45,4.04,1.24,6.1,1.19,5.19-.12,10.18.96,15.2,2.02,1.83.39,3.7.16,5.55.14,1.2-.01,1.25-.88,1.51-1.65.51-.35,1.08-.32,1.65-.23,5.26.83,10.55,1.32,15.86,1.76.89.07,1.87.03,2.56.83-1.39,1.56-3.52.42-5.37,1.66,2.57-.07,4.85.11,7.05.78-1.97,1.32-4.14.69-6.22.52-2.08-.18-4.13-.36-6.19.04-3.43-.51-6.86-1.1-10.3-1.52-5.76-.7-11.53-1.3-17.29-1.94-3.03-.34-6.07-.6-9.09-1.02-2.21-.3-3.1.37-3.17,2.65Z"/>
    <path class="cls-93"
          d="m63.74,274.31c-.81-2.52-.52-2.96,2.02-2.99,9.71-.11,19.4.41,29.09.92,3.25.17,6.47.91,9.69,1.43,1.13.18,2.14.24,2.59-1.1,2.86.54,5.81.59,8.57,1.66-17.32.02-34.64.05-51.95.07Z"/>
    <path class="cls-39"
          d="m118.31,181.99c.07-.42,1.45-.81.02-1.26-.07-3.33.11-6.64.71-9.92.09-.48.07-1.01.55-1.34.11-.09.27-.23.37-.19,3.06,1.2,6.22,2.18,9.08,3.83-.58,1.34-1.71,2.29-2.72,3.18-1.66,1.47-2.54,3.29-3.37,5.22-1.55.78-1.44,3.22-3.5,3.49-.71-.88-1.78-1.63-1.14-3.02Z"/>
    <path class="cls-7"
          d="m183.57,151.94c.86,2.1.21,4.28.35,6.41-1.99,1.3-4.33,1.8-6.46,2.8-1.74.82-3.49.01-4.21-1.73-.45-1.11-.94-2.3-2.3-2.13-1.48.19-2.02,1.42-2.05,2.85-.29-.43-.57-.87-.86-1.3-.51-.85-.44-1.64.3-2.3.9-.81,1.9-1.49,2.94-2.09.86-.5,1.6-.11,2.36.39,2.67,1.74,7.02.77,8.77-1.92.28-.43.35-1.15,1.16-.98Z"/>
    <path class="cls-5"
          d="m183.57,151.94c-1.23,4.12-4.86,4-8.09,4.52-.47.08-1.07-.33-1.54-.62-.73-.46-1.3-1.8-2.28-1.01-1.39,1.12-3.79,1.46-3.61,4.02-.57-.57-1.15-1.13-1.72-1.7,4.23-4.55,9.43-6.62,15.63-6.09.68.06,1.49-.17,1.61.89Z"/>
    <path class="cls-30"
          d="m129.04,173.12c-3.41-.53-6.34-2.32-9.45-3.65-.8-1.21-2.36-2.48.26-3.43.77.06,1.54.11,2.31.17,1.52,1.61,3.61,2.29,5.5,3.29.68.36,1.42.65,2.04,1.09.55.39,1.46.75,1.27,1.55-.2.87-1.17.85-1.93.98Z"/>
    <path class="cls-3"
          d="m160.23,152.21c.03,2.13-2.45,5.04-4.41,5.31-.85.12-1.59-.12-2.09-.8-.67-.91-.86-1.91-.38-3.02,1.03-2.4,3.3-3.24,5.37-4.3.63-.32,1.09.15,1.21.8.14.7.21,1.41.3,2Z"/>
    <path class="cls-112"
          d="m146.11,190.52c2.48-.73,5.06-.35,7.59-.74,3.03-.47,3.18-.44,3.27-3.49,1.2,1.76.6,3.76.73,5.66-1.34-1.16-2.69-.08-3.98.11-1.51.22-2.98.71-4.53.69.33-2.62-1.75-1.9-3.08-2.22Z"/>
    <path class="cls-40"
          d="m149.16,203.94c2.02-.38,4.05-.71,6.05-1.15,3.41-.74,3.4-.77,3.49-4.11.82,2.12.79,4.33.75,6.54-.36-.85-.67-1.84-1.92-1.18-2.5,1.31-5.22,1.63-7.96,1.95-.53-.6-.65-1.29-.41-2.05Z"/>
    <path class="cls-15"
          d="m168.9,219.24c0,10.95,0,21.89,0,32.84-.67-1.03-.51-2.22-.51-3.33.01-9.07.08-18.14.14-27.21,0-.78-.03-1.58.35-2.3Z"/>
    <path class="cls-65"
          d="m209.29,173.45c-.37,1.78-1.89,1.88-3.25,2.2-.21-.6-.41-1.2-.62-1.8,1.31.06,2.53-.71,3.87-.4Z"/>
    <path class="cls-70"
          d="m135.45,165.76c-.4-.05-.81-.11-1.21-.16,0-.1,0-.21,0-.31,3.88,0,7.76,0,11.65,0-3.44.93-6.95.36-10.43.47Z"/>
    <path class="cls-104"
          d="m259.07,254.49c-.2-.41-.54-.8-.96-.72-2.93.53-5.24-.97-7.64-2.21,4.39-.69,8.83-.41,13.25-.6,11.99-.5,24-.8,36-.7,1.07,0,2.14.11,3.2.2.93.08,1.4.57,1.33,1.56-.07.97-.75,1.16-1.49,1.18-2.21.08-4.43.09-6.64.15-12.35.37-24.7.75-37.05,1.13Z"/>
    <path class="cls-71"
          d="m34.92,228.81c-.41-3.45-.1-6.89.07-10.33.3-2.38.08-4.78.25-7.02.33-.31.59-.27.69-.12,1.54,2.41,3.81,2.35,6.26,1.97,1.04-.16,1.51-.57,1.64-1.58.22-1.7.4-3.4.45-5.12.09-2.93,1.53-4.64,4.4-5.24,1.81-.38,3.64-.73,5.52-.67,1.08.03,2.14-.14,3.15-.51,2.27-.84,2.67-1.51,2.8-3.96.1-1.74-.56-3.58.6-5.19,2.22-2.06,4.84-2.75,7.85-2.63,3.32.13,5.65-1.28,6.23-3.35.24-.87-.31-1.89.52-2.63.69.64.4,1.48.4,2.23.02,4.58-.03,9.16.01,13.74.06,6.76-2.71,6.9-7.18,7.63-.21.03-.43.03-.64,0-6.11-.62-7.4,2.18-7.24,7.23.09,2.81-2.25,5.08-5.36,5.19-2.14.07-4.22.58-6.38.53-2.02-.05-3.93,2.12-4.42,5.09-.37,2.23-1.11,3.18-3.37,2.07-.7-.34-1.22.18-1.73.55-.74.54-1.46.53-2.14-.09-1.38-1.27-1.96-.9-1.9.89.02.5.03,1.02-.48,1.33Z"/>
    <path class="cls-109"
          d="m85.53,251.56c-.53-.01-1.06-.03-1.59-.04-6.36-3.9-12.37-8.28-18.31-13.41,3.22-.7,6.04-.01,8.86.26,6.89.66,13.55,2.63,20.29,4.02,8.74,1.81,17.53,2.77,26.36,3.67,1.91.2,3.81.35,5.72.31,1.83.16,3.63-.27,5.46-.18.79.04,1.53.21,2.23.55,2.63.17,5.26.4,7.9.49,1.37.04,2.65,0,2.83,1.79.16,1.61-.15,3-2,3.48-.2.05-.36.21-.54.32-1.47.62-2.94-.06-4.42-.01-6.68.2-13.36-.23-20.05-.2-8.36-.88-16.78.13-25.14-.75-1.77-.19-3.55-.09-5.33-.01-.77.03-1.57.21-2.28-.29Z"/>
    <path class="cls-101"
          d="m100.47,201.74c.88-.69,1.91-.39,2.89-.42,2.91-.08,5.82-.13,8.69-.67,1.34.18,2.68.29,4.04.25.86-.03,1.72.2,1.76,1.15.16,3.37.96,6.81-.84,10.02-.71,1.22-2.1,1.19-3.18,1.5-3.05.89-6.01,2.14-9.16,2.69-.42.07-.83.18-1.26.21-2.08.13-2.47-.25-2.53-2.31-.02-.83.26-1.7-.23-2.49-.03-1.15-.05-2.3-.08-3.45.15-2.16.18-4.32-.1-6.47Z"/>
    <path class="cls-8"
          d="m107.12,220.23c2.87.43,5.22-1.27,7.83-1.9,2.29,0,2.85.56,3.1,2.77.29,2.64-.46,5.21-.42,7.82.01.84-.14,1.7.14,2.53.33.55.66,1.09.99,1.64.44.31.78.67.86,1.23-.05,2.68-.6,3.08-3,2.16-5.17-3.91-9.32-9.01-14.72-12.65-.23-.15-.52-.21-.78-.31-1.04-1.65.29-2.19,1.38-2.62,1.46-.57,3.06-.56,4.61-.67Z"/>
    <path class="cls-31"
          d="m107.12,220.23c-.8.88-1.9.68-2.92.88-1.36.26-3.31.03-3.07,2.41.14,4.98-.49,9.97.38,14.94.08.49.04,1,.01,1.5-.05,1.04.17,2.33-1.3,2.53-1.45.2-2.12-.83-2.62-2.04-1.03-2.48.02-4.94.15-7.38.1-1.92.1-3.77-.04-5.68-.22-3.2-.09-6.42-.06-9.63.01-1.22.21-2.38,1.94-1.98.99.23,1.05-.41,1.05-1.11,0-1,0-2-.01-3,.67.47.34,1.17.36,1.77.09,2.71.36,3.05,2.97,2.43,3.48-.84,6.94-1.77,10.26-3.13.79-.32,1.74-.05,2.41-.72,1.29-.78,2.57-.83,3.81.1-.06,1.32-1.16,1.18-1.99,1.4-5.14,1.36-10.47,2.12-15.2,4.58,2.82-.68,5.64-1.62,8.49-2.46.98-.29,2.03-.78,3.08-.12-.02,1.73-1.34,2.17-2.63,2.48-1.21.29-2.48.33-3.72.53-.96.15-1.88.38-1.35,1.72Z"/>
    <path class="cls-91"
          d="m119.2,233.89c-.15-.27-.29-.54-.44-.81.79-.15,1.3.37,1.88.76.74.5,1.51.76,2.3.08,2.69,1.39,4.99,3.38,7.54,4.98.89.56,1.77,1.11,2.72,1.55-.49,2.3.52,4.27,1.36,6.29-2.57.03-5.16.35-7.69-.37.48-.6,1.17-.23,1.74-.4,1.1-.32-.1-.57-.06-.86-2.39-3.8-4.82-7.58-8.61-10.2-.36-.25-.48-.69-.75-1.02Z"/>
    <path class="cls-38"
          d="m119.2,233.89c3.69,1.41,5.35,4.86,7.65,7.66.84,1.02,2.32,1.81,1.7,3.56-1.91.07-2.96-1.42-4.31-2.38-2.68-1.92-5.23-3.99-7.62-6.25,2.29.57,2.76-.69,2.58-2.58Z"/>
    <path class="cls-95"
          d="m269.84,219.34c0-2.07.04-4.15,0-6.22-.03-1.29.36-1.68,1.65-1.16,1.91.78,3.98.87,5.89.29,1.84-.56,2.78-2.13,2.77-4.14,0-1.86.03-3.72,0-5.58-.03-1.82.81-2.67,2.63-2.96,2.59-.41,5.14-1.13,7.72-1.59,1.28-.23,1.74-.99,1.65-2.08-.37-4.59.83-9.08.87-13.64,0-.57-.11-1.22.37-1.62,2.11-1.79,2.98-4.2,3.51-6.8,0,5.86-.06,11.72.03,17.57.04,2.94-.81,5.39-2.92,7.46-1.5,1.47-1.9,3.35-1.86,5.45.1,4.24-.65,4.94-4.86,5.16-1.86.1-3.65.57-5.34,1.33-1.11.5-1.74,1.29-1.82,2.63-.2,3.51-1.79,4.95-5.27,5.06-1.7.05-3.38.34-5.01.84Z"/>
    <path class="cls-92"
          d="m60.76,191.03c0,1.57-.02,3.14-.02,4.71,0,3.73-1.82,5.51-5.9,5.55-2.22.02-4.39.29-6.53.81-2.27.55-3.49,1.93-3.4,4.21.09,2.16-.49,4.24-.49,6.37,0,.55-.2.95-.71,1.2-2.45,1.23-6.63.1-8.18-2.3-.46,2.33.39,4.69-.54,6.89-.49-3.43-.12-6.86-.01-10.29.66-1.44-.2-2.91.12-4.39.39-1.77.61-2.08,2.12-1.21,1.94,1.1,3.9.09,5.84.28.89.09.88-1,.96-1.66.3-2.46.4-4.94.66-7.41.09-.84-.05-1.72.49-2.46.61-.55,1.37-.73,2.15-.83,4.29-.59,8.58-1.13,12.79-2.18.21-.05.42.03.62.11.01.87.02,1.74.03,2.61Z"/>
    <path class="cls-56"
          d="m60.73,188.43c-2.59,1.74-5.71,1.37-8.56,2.04-2.21.52-4.57.67-6.86.99-1.02-1.14-.36-2.67-.95-3.91,0-1.62-.63-3.37.97-4.66,2.82-2.41,5.92-3.97,9.79-4,1.86-.01,3.71-.79,5.56-1.23.02,3.59.03,7.18.05,10.76Z"/>
    <path class="cls-49"
          d="m44.85,187.58c.71,1.23.28,2.59.45,3.88-.05,3.76-.43,7.5-.86,11.23-.1.9-.3,1.31-1.31.98-1.25-.41-2.51-.36-3.76.11-1.08.41-1.92-.03-2.64-.86-.21-.24-.44-.65-.87-.41-.36.2-.23.59-.28.93-.25,1.57.22,3.24-.61,4.74-.56-4.15-.09-8.3.04-12.45.3-.45.14-.96.18-1.45.21-2.45.21-2.35,2.7-2.42,1.67-.05,3.27-.77,5.02-.16.93.32.79-.69.92-1.28.21-.99-.52-2.33,1.01-2.85Z"/>
    <path class="cls-78"
          d="m44.85,187.58c-.86,1.15-.33,2.47-.39,3.7-.07,1.46-.66,1.84-1.85,1.08-1.17-.75-2.27-.58-3.42-.04-.38.18-.91.48-1.19.34-2.93-1.47-2.22,1.04-2.62,2.34-.08.26-.24.49-.36.74,0-3.29,0-6.58,0-9.87.11-.18.29-.35.32-.54q.5-3.32,3.95-3.33c1.06,0,2.2-.24,3.18.05,2.04.59,1.88-.53,2.01-1.93.16-1.82-.89-3.84.76-5.45.03,2.74.06,5.47.09,8.21-.61,1.52-.36,3.12-.47,4.69Z"/>
    <path class="cls-64"
          d="m280.08,190.13c-.93.91-.85,2.09-.77,3.22.1,1.33-.54,2.11-1.73,2.28-2.73.4-5.42,1.27-8.24.9-.26-3.13.07-6.24.11-9.37,1.58.59,3.06.17,4.54-.39.8-.3,1.59-.68,2.42-.85,2.94-.61,3.86-1.82,3.16-4.84-.33-1.44-.23-2.65.54-3.85.03,3.17.06,6.35.08,9.52-.04,1.12-.08,2.25-.11,3.37Z"/>
    <path class="cls-19"
          d="m118.31,181.99c-.01,1.16,1.04,1.91,1.14,3.02-.16,3,.63,6.13-1.17,8.92-.6-3.3-.38-6.63-.39-9.95,0-.68-.24-1.44.41-1.99Z"/>
    <path class="cls-80"
          d="m219.11,155.45c-1.32-.07-2.18-.69-2.81-1.9-1.48-2.85-3.46-5.19-6.87-5.79,1.06-1.08,2.46-1.14,3.79-1.05,9.27.59,18.55.1,27.82.26,2.14.04,4.28-.09,6.42.09.51.04.98.2,1.33.6.09,1.99.21,3.98.27,5.97.04,1.25-.64,1.75-1.88,1.74-1.71,0-3.42.1-5.13.15-7.65-.02-15.3-.05-22.95-.07Z"/>
    <path class="cls-74"
          d="m248.79,147.66c-10.71-.02-21.42-.04-32.13-.08-2.41,0-4.83-.34-7.24.17-1.5-.48-2.4.76-3.58,1.23-.94-2.26-2.92-4.17-2.31-6.94,11.63-.02,23.27-.05,34.91-.07,1.78,0,3.57-.03,5.35-.05.63.04,1.26.11,1.89.12,3.89.03,4.97,1.99,3.1,5.63Z"/>
    <path class="cls-4"
          d="m203.35,203.92c-.62-2.2.17-4.33.44-6.46.2-1.56.07-3.11.18-4.62.3-4.06,1.76-7.84,3.99-11.29-.21,3.15-1.53,6.04-2.07,9.11-.77,4.4-1.46,8.82-2.18,13.22-.12.01-.24.02-.36.04Z"/>
    <path class="cls-60"
          d="m208.47,179.39c-1.43.29-1.98,1.98-3.47,2.17,1.22-2.65,3.41-4.2,6.02-5.27-.36,1.43-1.74,2.03-2.54,3.1Z"/>
    <path class="cls-67"
          d="m112.29,259.33c-6.75-.57-13.5-1.07-20.19-2.22,0,0,.03,0,.03,0-1-.31-2.01-.6-3-.94-.8-.28-1.64-.55-1.61-1.66,1.59-.99,3.48-.96,5.14-.85,3.39.22,6.79.05,10.17.43,3.54.43,7.1.62,10.65.66,8.04.09,16.05.86,24.09,1.03,1.92.14,3.84.32,5.77.4,1.56.06,1.59,1.09,1.61,2.22.02,1.26-.55,1.81-1.82,1.79-6.64-.1-13.29-.13-19.92-.54-3.63-.22-7.28-.22-10.93-.32Z"/>
    <path class="cls-116"
          d="m101.57,262.33c.59-.9,1.45-.93,2.43-.89,3.32.15,6.65.22,9.98.33,9.34.59,18.69,1.18,28.03,1.77,1.24.08,2.41.25,2.95,1.65,1.16,3.02.38,3.91-2.88,3.83-10.68-.26-21.09-2.76-31.67-3.78-.56-.05-1.12-.22-1.65-.43-2.36-.92-4.67-2-7.18-2.48Z"/>
    <path class="cls-13"
          d="m117.77,231.45c-.89-1.13-.38-2.44-.41-3.66-.05-2.26-.02-4.52,0-6.78.02-1.66-.62-2.68-2.41-2.67,3.19-1.17,6.36-2.37,9.7-3.06,2.92-.6,3.12-.48,3.52,2.4.06.42.23.82.31,1.23.34,1.82.16,3.3-1.95,4.03-2.27.78-4.41,1.98-6.71,2.62-1.58.45-2.06,1.24-2.02,2.69.03,1.07-.03,2.13-.04,3.2Z"/>
    <path class="cls-28"
          d="m133.2,240.45c-.36.16-.72.59-1.14.22-2.83-2.53-6.57-3.85-9.13-6.75,1.19-2.3,3.15-3.48,5.63-3.92,1.34-.27,2.7-.05,4.05-.13,1.68-.09,2.11.85,1.93,2.31-.18,1.48-.78,2.88-.88,4.38-.58,1.25-.23,2.6-.46,3.89Z"/>
    <path class="cls-61"
          d="m133.67,236.56c-.53-1.58-.11-3.1.35-4.59.4-1.3-.02-1.92-1.38-1.93-1.36,0-2.72-.03-4.08-.04,2.72-.89,5.51-.31,8.25-.24,2.56.06,3.88-.89,4.79-3.22.88-2.24,1.91-4.46,3.35-6.44.37-.51.71-1.25,1.47-.96.84.32.8,1.2.53,1.85-1.53,3.67-3.08,7.33-4.72,10.95-.57,1.27-1.93,1.54-3.14,2-1.88.71-4.08.81-5.43,2.61Z"/>
    <path class="cls-14"
          d="m137.57,255.78c-11.27.16-22.53-.42-33.79-.81-.35-.01-.72-.02-.94-.38.79-.84,1.85-.73,2.81-.65,3.66.3,7.2-.54,10.79-.95.75-.09,1.35-.41,1.85-.95,8.16-.06,16.32.14,24.45.78-1,.83-2.2.49-3.28.43-5.87-.37-11.58.9-17.35,1.77,2.84,0,5.69-.1,8.53.03,2.32.11,4.66.13,6.94.73Z"/>
    <path class="cls-106"
          d="m149.16,203.94c.52.61.56,1.31.41,2.05-2,1.7-4.51,1.92-6.94,2.41-5.35,1.06-10.39,3.36-15.82,4.13-1.19-.02-2.57,1.07-3.48-.6.48-1.34,1.87-1.03,2.81-1.53,7.46-2.15,14.92-4.31,22.38-6.45.2-.06.43-.01.64-.02Z"/>
    <path class="cls-50"
          d="m123.41,211.69c.91,1.2,2.31.37,3.4.84-3.34,1.62-7.17,1.21-10.58,2.54-.45.18-.93.29-1.4.43-4.41.76-8.48,2.84-13.42,3.39,2.58-2.31,5.43-3.03,8.23-3.79,3.55-.97,7.14-1.81,10.72-2.71.85-.95,2.04-.44,3.05-.7Z"/>
    <path class="cls-41"
          d="m185.3,234.39c0-6.43,0-12.86,0-19.3,0,0,0-.01,0-.01.37-2.49.87-4.97,1.25-7.46.3-1.98,1.31-3.7,1.92-5.56,1.43-2.58,3.08-5.03,4.56-7.58,1.42-1.72,2.85-3.45,4.27-5.17,1.18-.75,2.23-1.65,3.17-2.69.48-.54.96-1.3,1.91-.79-.17,2.8-1.48,5.23-2.54,7.74-1.48.94-1.91,2.71-2.26,4.07-1.24,4.79-4.29,8.73-5.84,13.37-.77,2.3-.45,4.64-.78,6.95-.57,3.86-1.32,7.55-2.8,11.21-.77,1.91-1.75,3.57-2.86,5.23Z"/>
    <path class="cls-59"
          d="m188.74,201.82c-.56,2.72-1.64,5.29-2.28,8.01-.42,1.74.3,3.76-1.17,5.25.13-4.84.49-9.63,3.37-13.8.24.15.27.33.09.54Z"/>
    <path class="cls-55"
          d="m202.37,185.82c-.96.1-1.27.94-1.84,1.52-.89.91-1.72,2.05-3.24,1.96,1.49-2.63,4-4.31,6.03-6.43.27,1.17-.86,1.89-.95,2.95Z"/>
    <path class="cls-110"
          d="m188.74,201.82c-.03-.18-.06-.36-.08-.54-.03-1.87,1.61-2.86,2.38-4.3.47-.87.64-2.23,1.98-2.5-.88,2.76-2.45,5.13-4.28,7.34Z"/>
    <path class="cls-53"
          d="m123.41,211.69c-.92.66-2.02.54-3.05.7-1.17-.76-2.49-.13-3.71-.39,1.34-3.12.48-6.39.7-9.59.07-1.04-.62-1.11-1.38-1.15-1.33-.08-2.71.17-3.93-.61,1.55-.4,3.12-.13,4.68-.21.61-.03,1.23.11,1.49.65,1.27,2.59,3.27,1.94,5.27,1.25,2.41-.84,2.72-.64,2.95,1.98.17,1.98,1.17,4.09-.9,5.75-.14.11.38.24.61.34-.67.94-1.64,1.24-2.73,1.29Z"/>
    <path class="cls-86"
          d="m118.29,252.04c.12,1.15-.36,1.47-1.53,1.71-4.61.95-9.27.71-13.91.85-5.11-.01-10.21-.45-15.32-.08-.79-.9-2.3-1.31-1.99-2.96,3.55-.76,7.12-.32,10.68-.19,7.36.29,14.74-.29,22.07.67Z"/>
    <path class="cls-114"
          d="m92.1,257.1c.32.46.63.93,1.07,1.56-3.05.83-6.01.9-9.02.19-2.56-.6-5.12-1.12-7.75-1.33-4.25-.35-8.49-.83-12.74-1.26-.62-.06-1.22-.35-1.3-.93-.12-.85.7-.66,1.2-.81,1.62-.46,3.23.11,4.86.06,7.34-.23,14.5,1.24,21.64,2.68.78.16,1.38-.06,2.07-.15,0,0-.03,0-.03,0Z"/>
    <g>
        <path class="cls-98"
              d="m184.25,58.43c-8.93,0-17.86-.04-26.8.03-1.81.01-3.64-.15-5.44.08-.94.12-1.88.1-2.82.24-1.25.19-2.49.35-3.73.64-2.12.5-4.01,1.45-5.77,2.71-2.52,1.8-4.66,4.02-6.88,6.16-4.75,4.58-9.49,9.19-14.23,13.78-.11.11-.22.22-.32.34-.78.98-1.75,1.25-3.02,1.24-6.73-.07-13.46-.03-20.19-.04-.17,0-.4.09-.48-.05-.11-.2.13-.32.26-.45,4.97-4.93,9.94-9.86,14.92-14.79,4.79-4.74,9.57-9.5,14.38-14.22,2.24-2.2,4.6-4.26,7.26-5.94,2.08-1.32,4.28-2.37,6.66-3.06,1.33-.38,2.67-.7,4.03-.93.94-.16,1.9-.25,2.85-.35,1.34-.15,2.69-.12,4.02-.33.55-.09,1.14.02,1.71.01,25.11-.32,50.22-.05,75.33-.14.32,0,.84-.14.92.07.11.32-.36.52-.6.75-4.46,4.39-8.96,8.74-13.38,13.16-.82.82-1.62,1.12-2.76,1.11-8.64-.05-17.27-.03-25.91-.03Z"/>
        <path class="cls-98"
              d="m209.39,60.91c-.88.88-1.65,1.64-2.41,2.41-3.8,3.8-7.6,7.59-11.39,11.4-.19.19-.37.26-.63.26-12.07,0-24.14,0-36.21-.02-1.23,0-2.46-.08-3.69.01-1.83.14-3.65.37-5.23,1.44-.99.68-1.86,1.49-2.71,2.34-1.51,1.51-3.02,3.01-4.52,4.52-.25.25-.49.36-.85.36-6.61-.01-13.21,0-19.82-.01-.16,0-.4.1-.47-.07-.09-.21.16-.32.29-.44,5.21-5.21,10.41-10.42,15.64-15.61,1.41-1.4,2.84-2.79,4.54-3.86,1.47-.93,3.05-1.57,4.75-1.96,1.31-.3,2.65-.53,3.96-.59,1.3-.06,2.6-.19,3.92-.19,18.12.03,36.24,0,54.36,0,.1,0,.2,0,.48,0Z"/>
        <path class="cls-98"
              d="m242.88,43.36c3.99,0,7.98,0,11.96,0,.16,0,.4-.1.48.05.12.21-.14.32-.27.44-7.66,7.63-15.32,15.26-22.98,22.9-5.51,5.49-11.02,10.98-16.53,16.48-.28.28-.55.39-.95.39-7.96-.01-15.92,0-23.88-.01-.15,0-.36.09-.43-.06-.08-.19.13-.29.25-.41,13.13-13.12,26.26-26.23,39.38-39.35.32-.32.63-.45,1.08-.45,3.95.02,7.91.01,11.86.01Z"/>
        <path class="cls-98"
              d="m234.54,79.87c-.41,1.12-.8,2.2-1.21,3.28-.08.2-.1.48-.45.48-.34,0-.42-.21-.51-.48-.34-.99-.7-1.98-1.05-2.97-.04-.1-.06-.2-.18-.24-.19.09-.1.26-.1.4,0,.88.02,1.76.03,2.65,0,.3.08.65-.43.64-.48-.01-.33-.36-.33-.6-.01-1.3-.01-2.6,0-3.9,0-.19-.13-.53.25-.49.35.04.82-.26,1.02.3.37,1.06.75,2.11,1.12,3.17.04.11.03.27.19.27.17,0,.15-.16.19-.27.37-1.05.74-2.11,1.09-3.17.21-.62.7-.25,1.06-.3.35-.05.25.3.25.5,0,1.3,0,2.6,0,3.9,0,.28.08.6-.41.59-.47,0-.38-.31-.38-.57,0-.9,0-1.8.01-2.7,0-.15.05-.31-.14-.49Z"/>
        <path class="cls-98"
              d="m228.02,81.48c0,.59,0,1.18,0,1.77,0,.28-.09.39-.39.39-.32,0-.39-.13-.39-.4,0-1.14-.01-2.29.01-3.43,0-.41-.12-.57-.54-.53-.24.03-.49-.01-.73,0-.27.02-.37-.07-.37-.35,0-.26.11-.32.35-.31,1.09.01,2.18,0,3.28,0,.21,0,.42-.03.42.3,0,.34-.18.37-.43.35-.02,0-.03,0-.05,0q-1.17.02-1.17,1.21c0,.33,0,.66,0,.99Z"/>
    </g>
</svg>